<?xml version="1.0" encoding="UTF-8" standalone="no"?>
<!DOCTYPE svg PUBLIC "-//W3C//DTD SVG 1.1//EN" "http://www.w3.org/Graphics/SVG/1.1/DTD/svg11.dtd">
<svg xmlns="http://www.w3.org/2000/svg" version="1.1" viewBox="0.00 0.00 2844.00 400.00">
<g stroke-width="0.00" fill="none" stroke-linecap="butt">
<path stroke="#808080" vector-effect="non-scaling-stroke" d="
  M 2844.00 128.04
  Q 2790.63 127.89 2737.25 128.14
  Q 2688.61 128.38 2637.75 128.26
  Q 2631.49 128.24 2627.80 128.45
  C 2625.41 128.58 2623.76 129.18 2623.63 131.69
  Q 2623.54 133.47 2623.60 163.22
  Q 2623.61 166.32 2625.62 167.69
  Q 2626.76 168.47 2630.54 168.49
  Q 2640.50 168.54 2671.76 168.48
  Q 2674.58 168.47 2674.58 171.00
  Q 2674.58 277.54 2674.58 339.92
  C 2674.58 342.17 2674.19 343.52 2671.75 343.52
  Q 2640.82 343.45 2627.77 343.56
  Q 2624.91 343.59 2624.89 346.44
  Q 2624.83 352.95 2624.87 383.20
  A 0.52 0.52 0.0 0 0 2625.39 383.72
  L 2844.00 382.69"
/>
<path stroke="#f68f92" vector-effect="non-scaling-stroke" d="
  M 2025.9717 15.4576
  A 2.96 2.96 0.0 0 0 2023.0014 12.5080
  L 1706.6633 13.6122
  A 2.96 2.96 0.0 0 0 1703.7136 16.5825
  L 1703.7883 37.9824
  A 2.96 2.96 0.0 0 0 1706.7586 40.9320
  L 2023.0967 39.8278
  A 2.96 2.96 0.0 0 0 2026.0464 36.8575
  L 2025.9717 15.4576"
/>
<path stroke="#f68f92" vector-effect="non-scaling-stroke" d="
  M 2026.27 102.12
  L 2025.09 77.24
  A 1.08 1.07 88.9 0 0 2024.03 76.21
  Q 1994.00 75.84 1983.11 75.65
  C 1954.08 75.13 1937.65 75.68 1902.99 76.19
  C 1895.24 76.30 1887.98 75.72 1885.15 84.40
  Q 1883.66 88.97 1883.62 92.58
  Q 1882.05 233.83 1884.64 375.66
  A 0.75 0.75 0.0 0 0 1885.43 376.40
  L 1910.13 375.23
  A 1.17 1.17 0.0 0 0 1911.25 374.06
  L 1911.25 104.25
  A 1.63 1.62 0.0 0 1 1912.88 102.63
  L 2025.78 102.63
  A 0.49 0.49 0.0 0 0 2026.27 102.12"
/>
<path stroke="#f68f92" vector-effect="non-scaling-stroke" d="
  M 1819.39 104.17
  Q 1819.68 104.87 1819.70 105.28
  Q 1819.76 106.73 1819.73 372.49
  Q 1819.73 374.48 1822.27 375.65
  A 2.24 2.20 56.8 0 0 1823.19 375.85
  Q 1832.43 375.92 1841.54 375.84
  C 1847.04 375.80 1848.60 375.31 1848.24 369.08
  Q 1847.33 353.38 1847.29 336.50
  Q 1847.23 310.50 1846.77 210.25
  Q 1846.65 183.19 1847.24 150.50
  Q 1847.63 128.93 1846.77 102.72
  C 1846.60 97.36 1846.55 92.16 1845.24 87.24
  C 1842.96 78.63 1836.17 76.41 1828.04 76.38
  Q 1771.81 76.20 1711.85 77.47
  C 1707.51 77.56 1704.48 77.24 1703.97 81.97
  Q 1703.44 86.87 1703.79 90.76
  Q 1704.38 97.22 1705.53 99.32
  Q 1707.64 103.18 1713.27 103.16
  Q 1752.89 103.06 1817.87 103.15
  A 1.65 1.64 78.8 0 1 1819.39 104.17"
/>
<path stroke="#808080" vector-effect="non-scaling-stroke" d="
  M 240.24 301.76
  Q 220.69 318.99 194.84 324.40
  Q 173.57 328.85 151.25 327.94
  Q 131.20 327.13 114.99 321.88
  C 94.72 315.31 76.46 302.77 65.21 284.77
  C 46.68 255.11 49.10 216.42 72.19 189.88
  Q 86.41 173.53 105.98 165.45
  C 134.05 153.87 168.47 153.22 197.55 160.26
  C 209.65 163.19 220.05 167.66 230.12 174.12
  Q 231.39 174.94 238.52 180.11
  A 1.20 1.19 -54.1 0 0 240.18 179.84
  Q 244.42 173.99 265.76 144.44
  C 267.51 142.02 268.14 140.32 265.56 138.42
  Q 233.07 114.53 194.97 109.03
  Q 182.71 107.26 170.25 107.05
  Q 152.86 106.77 134.88 107.44
  Q 117.63 108.09 98.98 113.45
  C 53.32 126.56 12.39 162.90 4.72 211.83
  C -0.49 244.98 2.36 277.55 19.40 307.06
  C 34.49 333.19 59.79 352.75 88.02 362.73
  Q 111.21 370.93 138.76 373.44
  C 146.05 374.11 154.16 373.40 163.25 373.66
  Q 177.47 374.08 186.69 372.36
  Q 205.70 368.80 212.33 367.09
  Q 228.78 362.83 244.35 354.92
  C 254.00 350.03 263.52 343.16 271.12 336.36
  A 2.04 2.04 0.0 0 0 271.24 333.44
  L 241.44 301.82
  A 0.87 0.86 47.4 0 0 240.24 301.76"
/>
<path stroke="#808080" vector-effect="non-scaling-stroke" d="
  M 279.88 239.92
  Q 279.88 251.85 281.52 262.32
  Q 290.04 316.62 333.90 346.74
  C 349.86 357.70 370.16 365.25 389.25 369.71
  Q 397.91 371.73 403.75 372.05
  Q 414.06 372.60 434.60 372.61
  Q 455.15 372.63 465.45 372.08
  Q 471.29 371.77 479.96 369.76
  C 499.05 365.32 519.36 357.79 535.33 346.85
  Q 579.22 316.77 587.80 262.49
  Q 589.46 252.01 589.46 240.09
  Q 589.47 228.16 587.82 217.68
  Q 579.31 163.39 535.45 133.27
  C 519.49 122.31 499.19 114.76 480.10 110.30
  Q 471.44 108.28 465.59 107.96
  Q 455.29 107.40 434.74 107.39
  Q 414.20 107.38 403.90 107.93
  Q 398.05 108.24 389.39 110.25
  C 370.29 114.69 349.99 122.22 334.01 133.16
  Q 290.12 163.23 281.54 217.52
  Q 279.89 227.99 279.88 239.92"
/>
<path stroke="#808080" vector-effect="non-scaling-stroke" d="
  M 1113.12 120.00
  A 1.12 1.12 0.0 0 0 1112.00 118.88
  L 890.88 118.88
  A 1.12 1.12 0.0 0 0 889.76 120.00
  L 889.76 165.63
  A 1.12 1.12 0.0 0 0 890.88 166.75
  L 977.50 166.75
  A 1.12 1.12 0.0 0 1 978.62 167.87
  L 978.62 368.62
  A 1.12 1.12 0.0 0 0 979.74 369.74
  L 1025.25 369.74
  A 1.12 1.12 0.0 0 0 1026.37 368.62
  L 1026.37 167.87
  A 1.12 1.12 0.0 0 1 1027.49 166.75
  L 1112.00 166.75
  A 1.12 1.12 0.0 0 0 1113.12 165.63
  L 1113.12 120.00"
/>
<path stroke="#808080" vector-effect="non-scaling-stroke" d="
  M 723.35 260.34
  Q 807.24 355.58 818.50 367.99
  Q 819.96 369.60 821.77 369.60
  Q 842.91 369.55 865.14 369.62
  Q 867.76 369.62 867.76 367.51
  Q 867.74 279.83 867.75 121.51
  Q 867.75 119.34 865.53 119.34
  Q 842.56 119.35 820.79 119.34
  A 1.53 1.53 0.0 0 0 819.26 120.87
  L 819.26 297.11
  A 0.83 0.82 24.3 0 1 817.81 297.65
  Q 785.69 261.45 757.62 229.13
  Q 757.39 228.86 757.16 228.60
  Q 673.27 133.35 662.01 120.94
  Q 660.55 119.34 658.74 119.34
  Q 637.60 119.39 615.37 119.32
  Q 612.75 119.32 612.75 121.43
  Q 612.77 209.11 612.76 367.43
  Q 612.76 369.60 614.98 369.60
  Q 637.95 369.59 659.72 369.60
  A 1.53 1.53 0.0 0 0 661.25 368.07
  L 661.25 191.83
  A 0.83 0.82 24.3 0 1 662.70 191.29
  Q 694.82 227.49 722.89 259.81
  Q 723.12 260.07 723.35 260.34"
/>
<path stroke="#808080" vector-effect="non-scaling-stroke" d="
  M 1201.41 322.75
  Q 1261.11 322.75 1271.22 322.76
  A 2.03 2.02 76.8 0 1 1273.04 323.90
  Q 1292.26 363.37 1293.34 365.58
  C 1294.42 367.81 1295.89 369.69 1298.28 369.70
  Q 1312.73 369.79 1342.08 369.72
  A 0.74 0.74 0.0 0 0 1342.75 368.66
  L 1222.64 120.79
  A 2.17 2.15 77.1 0 0 1220.71 119.56
  Q 1211.22 119.50 1201.40 119.50
  Q 1191.57 119.50 1182.09 119.57
  A 2.17 2.15 -77.1 0 0 1180.15 120.79
  L 1060.07 368.67
  A 0.74 0.74 0.0 0 0 1060.74 369.73
  Q 1090.09 369.80 1104.54 369.71
  C 1106.93 369.70 1108.40 367.82 1109.48 365.59
  Q 1110.56 363.38 1129.77 323.91
  A 2.03 2.02 -76.8 0 1 1131.60 322.77
  Q 1141.70 322.75 1201.41 322.75"
/>
<path stroke="#808080" vector-effect="non-scaling-stroke" d="
  M 1352.21 120.63
  L 1452.23 247.74
  A 1.13 1.11 -44.6 0 1 1452.21 249.14
  L 1353.84 368.32
  A 0.88 0.88 0.0 0 0 1354.52 369.75
  L 1404.55 369.75
  A 1.77 1.77 0.0 0 0 1405.92 369.10
  L 1477.95 281.83
  A 0.85 0.85 0.0 0 1 1479.27 281.85
  L 1547.98 369.17
  A 1.21 1.20 -19.2 0 0 1548.92 369.62
  L 1599.64 369.62
  A 0.70 0.70 0.0 0 0 1600.34 368.90
  Q 1600.33 368.42 1599.99 368.00
  Q 1577.18 338.98 1505.89 248.52
  A 0.50 0.50 0.0 0 1 1505.90 247.91
  Q 1603.60 129.52 1610.47 121.18
  A 0.96 0.96 0.0 0 0 1610.21 119.74
  Q 1610.00 119.63 1609.56 119.63
  Q 1586.24 119.62 1559.79 119.62
  A 1.52 1.50 19.3 0 0 1558.62 120.17
  L 1480.51 214.81
  A 0.59 0.59 0.0 0 1 1479.59 214.80
  L 1404.94 119.93
  A 1.13 1.11 70.5 0 0 1404.06 119.50
  L 1352.76 119.50
  A 0.70 0.70 0.0 0 0 1352.21 120.63"
/>
<path stroke="#808080" vector-effect="non-scaling-stroke" d="
  M 2551.46 156.16
  Q 2546.53 152.99 2540.08 149.70
  Q 2490.36 124.30 2434.77 133.28
  C 2401.18 138.71 2362.25 158.59 2363.63 198.49
  Q 2364.77 231.52 2393.07 247.49
  Q 2400.92 251.91 2411.75 255.57
  Q 2433.12 262.80 2446.75 266.41
  Q 2451.12 267.56 2459.93 269.99
  Q 2465.34 271.48 2473.20 273.14
  Q 2498.77 278.56 2526.15 288.12
  Q 2534.31 290.97 2537.59 297.94
  Q 2539.54 302.07 2539.81 309.64
  C 2540.14 318.43 2534.60 323.40 2527.63 327.35
  Q 2507.50 338.73 2484.98 342.45
  C 2460.38 346.51 2434.34 341.93 2411.85 331.38
  Q 2401.08 326.33 2391.63 318.06
  C 2387.50 314.43 2384.68 312.15 2380.18 316.67
  Q 2363.48 333.45 2360.01 336.85
  C 2357.60 339.21 2356.58 341.18 2358.26 344.12
  A 2.34 2.27 -86.6 0 0 2358.82 344.77
  Q 2397.64 375.49 2446.52 382.21
  C 2475.16 386.15 2502.55 381.23 2529.49 370.34
  C 2541.61 365.44 2552.32 360.06 2561.21 351.96
  C 2572.42 341.75 2578.95 326.87 2580.36 311.76
  C 2582.18 292.20 2574.60 274.95 2559.78 262.42
  Q 2550.92 254.93 2541.51 251.01
  Q 2525.96 244.53 2505.92 239.62
  Q 2467.48 230.19 2436.55 222.26
  C 2427.38 219.91 2418.16 216.60 2410.66 210.59
  C 2406.46 207.22 2403.61 201.72 2404.39 196.18
  Q 2405.90 185.51 2415.00 181.53
  Q 2428.23 175.74 2445.51 172.77
  Q 2474.50 167.80 2502.89 176.44
  Q 2510.87 178.87 2520.91 185.18
  Q 2526.51 188.69 2528.59 188.79
  Q 2533.21 189.00 2535.82 185.06
  Q 2542.77 174.57 2552.02 161.30
  Q 2553.22 159.56 2552.15 156.98
  A 1.90 1.85 5.6 0 0 2551.46 156.16"
/>
<path stroke="#808080" vector-effect="non-scaling-stroke" d="
  M 2206.72 332.48
  C 2205.13 332.49 2203.62 329.70 2203.01 328.54
  Q 2117.18 164.78 2107.54 146.53
  Q 2104.85 141.44 2099.07 141.46
  Q 2066.67 141.55 2061.37 141.51
  A 1.90 1.88 -86.2 0 0 2059.49 143.17
  Q 2059.38 144.07 2060.09 145.40
  Q 2175.94 364.08 2180.00 371.76
  Q 2181.57 374.74 2185.50 374.45
  Q 2190.65 374.08 2206.90 374.00
  Q 2223.16 373.93 2228.31 374.26
  Q 2232.24 374.51 2233.79 371.52
  Q 2237.78 363.80 2351.66 144.09
  Q 2352.35 142.75 2352.24 141.85
  A 1.90 1.88 85.7 0 0 2350.34 140.21
  Q 2345.04 140.30 2312.64 140.50
  Q 2306.86 140.53 2304.22 145.65
  Q 2294.74 163.98 2210.39 328.50
  C 2209.79 329.67 2208.31 332.47 2206.72 332.48"
/>
<path stroke="#808080" vector-effect="non-scaling-stroke" d="
  M 331.13 242.08
  C 331.16 269.24 343.18 293.06 365.61 308.63
  C 386.79 323.33 412.10 328.22 437.34 328.19
  C 462.58 328.16 487.88 323.21 509.02 308.46
  C 531.41 292.84 543.37 268.99 543.34 241.83
  C 543.31 214.67 531.29 190.85 508.86 175.28
  C 487.68 160.58 462.37 155.69 437.13 155.72
  C 411.89 155.75 386.59 160.70 365.45 175.45
  C 343.06 191.07 331.10 214.92 331.13 242.08"
/>
<path stroke="#808080" vector-effect="non-scaling-stroke" d="
  M 1154.00 273.35
  A 1.00 1.00 0.0 0 0 1154.89 274.79
  L 1247.99 274.95
  A 1.00 1.00 0.0 0 0 1248.89 273.52
  L 1202.51 177.33
  A 1.00 1.00 0.0 0 0 1200.71 177.33
  L 1154.00 273.35"
/>
<path stroke="#808080" vector-effect="non-scaling-stroke" d="
  M 2844.00 167.71
  L 2804.56 168.03
  A 1.20 1.20 0.0 0 0 2803.37 169.23
  L 2804.26 341.74
  A 1.26 1.25 89.8 0 0 2805.51 342.99
  L 2844.00 343.06"
/>
<path stroke="#808080" vector-effect="non-scaling-stroke" d="
  M 2762.2466 170.8058
  A 2.59 2.59 0.0 0 0 2759.6386 168.2340
  L 2717.1997 168.5303
  A 2.59 2.59 0.0 0 0 2714.6278 171.1383
  L 2715.8134 340.9542
  A 2.59 2.59 0.0 0 0 2718.4214 343.5260
  L 2760.8603 343.2297
  A 2.59 2.59 0.0 0 0 2763.4322 340.6217
  L 2762.2466 170.8058"
/>
</g>
<path fill="#ffffff" d="
  M 2844.00 0.00
  L 2844.00 128.04
  Q 2790.63 127.89 2737.25 128.14
  Q 2688.61 128.38 2637.75 128.26
  Q 2631.49 128.24 2627.80 128.45
  C 2625.41 128.58 2623.76 129.18 2623.63 131.69
  Q 2623.54 133.47 2623.60 163.22
  Q 2623.61 166.32 2625.62 167.69
  Q 2626.76 168.47 2630.54 168.49
  Q 2640.50 168.54 2671.76 168.48
  Q 2674.58 168.47 2674.58 171.00
  Q 2674.58 277.54 2674.58 339.92
  C 2674.58 342.17 2674.19 343.52 2671.75 343.52
  Q 2640.82 343.45 2627.77 343.56
  Q 2624.91 343.59 2624.89 346.44
  Q 2624.83 352.95 2624.87 383.20
  A 0.52 0.52 0.0 0 0 2625.39 383.72
  L 2844.00 382.69
  L 2844.00 400.00
  L 0.00 400.00
  L 0.00 0.00
  L 2844.00 0.00
  Z
  M 2025.9717 15.4576
  A 2.96 2.96 0.0 0 0 2023.0014 12.5080
  L 1706.6633 13.6122
  A 2.96 2.96 0.0 0 0 1703.7136 16.5825
  L 1703.7883 37.9824
  A 2.96 2.96 0.0 0 0 1706.7586 40.9320
  L 2023.0967 39.8278
  A 2.96 2.96 0.0 0 0 2026.0464 36.8575
  L 2025.9717 15.4576
  Z
  M 2026.27 102.12
  L 2025.09 77.24
  A 1.08 1.07 88.9 0 0 2024.03 76.21
  Q 1994.00 75.84 1983.11 75.65
  C 1954.08 75.13 1937.65 75.68 1902.99 76.19
  C 1895.24 76.30 1887.98 75.72 1885.15 84.40
  Q 1883.66 88.97 1883.62 92.58
  Q 1882.05 233.83 1884.64 375.66
  A 0.75 0.75 0.0 0 0 1885.43 376.40
  L 1910.13 375.23
  A 1.17 1.17 0.0 0 0 1911.25 374.06
  L 1911.25 104.25
  A 1.63 1.62 0.0 0 1 1912.88 102.63
  L 2025.78 102.63
  A 0.49 0.49 0.0 0 0 2026.27 102.12
  Z
  M 1819.39 104.17
  Q 1819.68 104.87 1819.70 105.28
  Q 1819.76 106.73 1819.73 372.49
  Q 1819.73 374.48 1822.27 375.65
  A 2.24 2.20 56.8 0 0 1823.19 375.85
  Q 1832.43 375.92 1841.54 375.84
  C 1847.04 375.80 1848.60 375.31 1848.24 369.08
  Q 1847.33 353.38 1847.29 336.50
  Q 1847.23 310.50 1846.77 210.25
  Q 1846.65 183.19 1847.24 150.50
  Q 1847.63 128.93 1846.77 102.72
  C 1846.60 97.36 1846.55 92.16 1845.24 87.24
  C 1842.96 78.63 1836.17 76.41 1828.04 76.38
  Q 1771.81 76.20 1711.85 77.47
  C 1707.51 77.56 1704.48 77.24 1703.97 81.97
  Q 1703.44 86.87 1703.79 90.76
  Q 1704.38 97.22 1705.53 99.32
  Q 1707.64 103.18 1713.27 103.16
  Q 1752.89 103.06 1817.87 103.15
  A 1.65 1.64 78.8 0 1 1819.39 104.17
  Z
  M 240.24 301.76
  Q 220.69 318.99 194.84 324.40
  Q 173.57 328.85 151.25 327.94
  Q 131.20 327.13 114.99 321.88
  C 94.72 315.31 76.46 302.77 65.21 284.77
  C 46.68 255.11 49.10 216.42 72.19 189.88
  Q 86.41 173.53 105.98 165.45
  C 134.05 153.87 168.47 153.22 197.55 160.26
  C 209.65 163.19 220.05 167.66 230.12 174.12
  Q 231.39 174.94 238.52 180.11
  A 1.20 1.19 -54.1 0 0 240.18 179.84
  Q 244.42 173.99 265.76 144.44
  C 267.51 142.02 268.14 140.32 265.56 138.42
  Q 233.07 114.53 194.97 109.03
  Q 182.71 107.26 170.25 107.05
  Q 152.86 106.77 134.88 107.44
  Q 117.63 108.09 98.98 113.45
  C 53.32 126.56 12.39 162.90 4.72 211.83
  C -0.49 244.98 2.36 277.55 19.40 307.06
  C 34.49 333.19 59.79 352.75 88.02 362.73
  Q 111.21 370.93 138.76 373.44
  C 146.05 374.11 154.16 373.40 163.25 373.66
  Q 177.47 374.08 186.69 372.36
  Q 205.70 368.80 212.33 367.09
  Q 228.78 362.83 244.35 354.92
  C 254.00 350.03 263.52 343.16 271.12 336.36
  A 2.04 2.04 0.0 0 0 271.24 333.44
  L 241.44 301.82
  A 0.87 0.86 47.4 0 0 240.24 301.76
  Z
  M 279.88 239.92
  Q 279.88 251.85 281.52 262.32
  Q 290.04 316.62 333.90 346.74
  C 349.86 357.70 370.16 365.25 389.25 369.71
  Q 397.91 371.73 403.75 372.05
  Q 414.06 372.60 434.60 372.61
  Q 455.15 372.63 465.45 372.08
  Q 471.29 371.77 479.96 369.76
  C 499.05 365.32 519.36 357.79 535.33 346.85
  Q 579.22 316.77 587.80 262.49
  Q 589.46 252.01 589.46 240.09
  Q 589.47 228.16 587.82 217.68
  Q 579.31 163.39 535.45 133.27
  C 519.49 122.31 499.19 114.76 480.10 110.30
  Q 471.44 108.28 465.59 107.96
  Q 455.29 107.40 434.74 107.39
  Q 414.20 107.38 403.90 107.93
  Q 398.05 108.24 389.39 110.25
  C 370.29 114.69 349.99 122.22 334.01 133.16
  Q 290.12 163.23 281.54 217.52
  Q 279.89 227.99 279.88 239.92
  Z
  M 1113.12 120.00
  A 1.12 1.12 0.0 0 0 1112.00 118.88
  L 890.88 118.88
  A 1.12 1.12 0.0 0 0 889.76 120.00
  L 889.76 165.63
  A 1.12 1.12 0.0 0 0 890.88 166.75
  L 977.50 166.75
  A 1.12 1.12 0.0 0 1 978.62 167.87
  L 978.62 368.62
  A 1.12 1.12 0.0 0 0 979.74 369.74
  L 1025.25 369.74
  A 1.12 1.12 0.0 0 0 1026.37 368.62
  L 1026.37 167.87
  A 1.12 1.12 0.0 0 1 1027.49 166.75
  L 1112.00 166.75
  A 1.12 1.12 0.0 0 0 1113.12 165.63
  L 1113.12 120.00
  Z
  M 723.35 260.34
  Q 807.24 355.58 818.50 367.99
  Q 819.96 369.60 821.77 369.60
  Q 842.91 369.55 865.14 369.62
  Q 867.76 369.62 867.76 367.51
  Q 867.74 279.83 867.75 121.51
  Q 867.75 119.34 865.53 119.34
  Q 842.56 119.35 820.79 119.34
  A 1.53 1.53 0.0 0 0 819.26 120.87
  L 819.26 297.11
  A 0.83 0.82 24.3 0 1 817.81 297.65
  Q 785.69 261.45 757.62 229.13
  Q 757.39 228.86 757.16 228.60
  Q 673.27 133.35 662.01 120.94
  Q 660.55 119.34 658.74 119.34
  Q 637.60 119.39 615.37 119.32
  Q 612.75 119.32 612.75 121.43
  Q 612.77 209.11 612.76 367.43
  Q 612.76 369.60 614.98 369.60
  Q 637.95 369.59 659.72 369.60
  A 1.53 1.53 0.0 0 0 661.25 368.07
  L 661.25 191.83
  A 0.83 0.82 24.3 0 1 662.70 191.29
  Q 694.82 227.49 722.89 259.81
  Q 723.12 260.07 723.35 260.34
  Z
  M 1201.41 322.75
  Q 1261.11 322.75 1271.22 322.76
  A 2.03 2.02 76.8 0 1 1273.04 323.90
  Q 1292.26 363.37 1293.34 365.58
  C 1294.42 367.81 1295.89 369.69 1298.28 369.70
  Q 1312.73 369.79 1342.08 369.72
  A 0.74 0.74 0.0 0 0 1342.75 368.66
  L 1222.64 120.79
  A 2.17 2.15 77.1 0 0 1220.71 119.56
  Q 1211.22 119.50 1201.40 119.50
  Q 1191.57 119.50 1182.09 119.57
  A 2.17 2.15 -77.1 0 0 1180.15 120.79
  L 1060.07 368.67
  A 0.74 0.74 0.0 0 0 1060.74 369.73
  Q 1090.09 369.80 1104.54 369.71
  C 1106.93 369.70 1108.40 367.82 1109.48 365.59
  Q 1110.56 363.38 1129.77 323.91
  A 2.03 2.02 -76.8 0 1 1131.60 322.77
  Q 1141.70 322.75 1201.41 322.75
  Z
  M 1352.21 120.63
  L 1452.23 247.74
  A 1.13 1.11 -44.6 0 1 1452.21 249.14
  L 1353.84 368.32
  A 0.88 0.88 0.0 0 0 1354.52 369.75
  L 1404.55 369.75
  A 1.77 1.77 0.0 0 0 1405.92 369.10
  L 1477.95 281.83
  A 0.85 0.85 0.0 0 1 1479.27 281.85
  L 1547.98 369.17
  A 1.21 1.20 -19.2 0 0 1548.92 369.62
  L 1599.64 369.62
  A 0.70 0.70 0.0 0 0 1600.34 368.90
  Q 1600.33 368.42 1599.99 368.00
  Q 1577.18 338.98 1505.89 248.52
  A 0.50 0.50 0.0 0 1 1505.90 247.91
  Q 1603.60 129.52 1610.47 121.18
  A 0.96 0.96 0.0 0 0 1610.21 119.74
  Q 1610.00 119.63 1609.56 119.63
  Q 1586.24 119.62 1559.79 119.62
  A 1.52 1.50 19.3 0 0 1558.62 120.17
  L 1480.51 214.81
  A 0.59 0.59 0.0 0 1 1479.59 214.80
  L 1404.94 119.93
  A 1.13 1.11 70.5 0 0 1404.06 119.50
  L 1352.76 119.50
  A 0.70 0.70 0.0 0 0 1352.21 120.63
  Z
  M 2551.46 156.16
  Q 2546.53 152.99 2540.08 149.70
  Q 2490.36 124.30 2434.77 133.28
  C 2401.18 138.71 2362.25 158.59 2363.63 198.49
  Q 2364.77 231.52 2393.07 247.49
  Q 2400.92 251.91 2411.75 255.57
  Q 2433.12 262.80 2446.75 266.41
  Q 2451.12 267.56 2459.93 269.99
  Q 2465.34 271.48 2473.20 273.14
  Q 2498.77 278.56 2526.15 288.12
  Q 2534.31 290.97 2537.59 297.94
  Q 2539.54 302.07 2539.81 309.64
  C 2540.14 318.43 2534.60 323.40 2527.63 327.35
  Q 2507.50 338.73 2484.98 342.45
  C 2460.38 346.51 2434.34 341.93 2411.85 331.38
  Q 2401.08 326.33 2391.63 318.06
  C 2387.50 314.43 2384.68 312.15 2380.18 316.67
  Q 2363.48 333.45 2360.01 336.85
  C 2357.60 339.21 2356.58 341.18 2358.26 344.12
  A 2.34 2.27 -86.6 0 0 2358.82 344.77
  Q 2397.64 375.49 2446.52 382.21
  C 2475.16 386.15 2502.55 381.23 2529.49 370.34
  C 2541.61 365.44 2552.32 360.06 2561.21 351.96
  C 2572.42 341.75 2578.95 326.87 2580.36 311.76
  C 2582.18 292.20 2574.60 274.95 2559.78 262.42
  Q 2550.92 254.93 2541.51 251.01
  Q 2525.96 244.53 2505.92 239.62
  Q 2467.48 230.19 2436.55 222.26
  C 2427.38 219.91 2418.16 216.60 2410.66 210.59
  C 2406.46 207.22 2403.61 201.72 2404.39 196.18
  Q 2405.90 185.51 2415.00 181.53
  Q 2428.23 175.74 2445.51 172.77
  Q 2474.50 167.80 2502.89 176.44
  Q 2510.87 178.87 2520.91 185.18
  Q 2526.51 188.69 2528.59 188.79
  Q 2533.21 189.00 2535.82 185.06
  Q 2542.77 174.57 2552.02 161.30
  Q 2553.22 159.56 2552.15 156.98
  A 1.90 1.85 5.6 0 0 2551.46 156.16
  Z
  M 2206.72 332.48
  C 2205.13 332.49 2203.62 329.70 2203.01 328.54
  Q 2117.18 164.78 2107.54 146.53
  Q 2104.85 141.44 2099.07 141.46
  Q 2066.67 141.55 2061.37 141.51
  A 1.90 1.88 -86.2 0 0 2059.49 143.17
  Q 2059.38 144.07 2060.09 145.40
  Q 2175.94 364.08 2180.00 371.76
  Q 2181.57 374.74 2185.50 374.45
  Q 2190.65 374.08 2206.90 374.00
  Q 2223.16 373.93 2228.31 374.26
  Q 2232.24 374.51 2233.79 371.52
  Q 2237.78 363.80 2351.66 144.09
  Q 2352.35 142.75 2352.24 141.85
  A 1.90 1.88 85.7 0 0 2350.34 140.21
  Q 2345.04 140.30 2312.64 140.50
  Q 2306.86 140.53 2304.22 145.65
  Q 2294.74 163.98 2210.39 328.50
  C 2209.79 329.67 2208.31 332.47 2206.72 332.48
  Z"
/>
<path fill="#ed1f25" d="
  M 2026.0464 36.8575
  A 2.96 2.96 0.0 0 1 2023.0967 39.8278
  L 1706.7586 40.9320
  A 2.96 2.96 0.0 0 1 1703.7883 37.9824
  L 1703.7136 16.5825
  A 2.96 2.96 0.0 0 1 1706.6633 13.6122
  L 2023.0014 12.5080
  A 2.96 2.96 0.0 0 1 2025.9717 15.4576
  L 2026.0464 36.8575
  Z"
/>
<path fill="#ed1f25" d="
  M 2026.27 102.12
  A 0.49 0.49 0.0 0 1 2025.78 102.63
  L 1912.88 102.63
  A 1.63 1.62 -0.0 0 0 1911.25 104.25
  L 1911.25 374.06
  A 1.17 1.17 0.0 0 1 1910.13 375.23
  L 1885.43 376.40
  A 0.75 0.75 0.0 0 1 1884.64 375.66
  Q 1882.05 233.83 1883.62 92.58
  Q 1883.66 88.97 1885.15 84.40
  C 1887.98 75.72 1895.24 76.30 1902.99 76.19
  C 1937.65 75.68 1954.08 75.13 1983.11 75.65
  Q 1994.00 75.84 2024.03 76.21
  A 1.08 1.07 88.9 0 1 2025.09 77.24
  L 2026.27 102.12
  Z"
/>
<path fill="#ed1f25" d="
  M 1819.39 104.17
  A 1.65 1.64 78.8 0 0 1817.87 103.15
  Q 1752.89 103.06 1713.27 103.16
  Q 1707.64 103.18 1705.53 99.32
  Q 1704.38 97.22 1703.79 90.76
  Q 1703.44 86.87 1703.97 81.97
  C 1704.48 77.24 1707.51 77.56 1711.85 77.47
  Q 1771.81 76.20 1828.04 76.38
  C 1836.17 76.41 1842.96 78.63 1845.24 87.24
  C 1846.55 92.16 1846.60 97.36 1846.77 102.72
  Q 1847.63 128.93 1847.24 150.50
  Q 1846.65 183.19 1846.77 210.25
  Q 1847.23 310.50 1847.29 336.50
  Q 1847.33 353.38 1848.24 369.08
  C 1848.60 375.31 1847.04 375.80 1841.54 375.84
  Q 1832.43 375.92 1823.19 375.85
  A 2.24 2.20 56.8 0 1 1822.27 375.65
  Q 1819.73 374.48 1819.73 372.49
  Q 1819.76 106.73 1819.70 105.28
  Q 1819.68 104.87 1819.39 104.17
  Z"
/>
<path fill="#000000" d="
  M 240.24 301.76
  A 0.87 0.86 47.4 0 1 241.44 301.82
  L 271.24 333.44
  A 2.04 2.04 0.0 0 1 271.12 336.36
  C 263.52 343.16 254.00 350.03 244.35 354.92
  Q 228.78 362.83 212.33 367.09
  Q 205.70 368.80 186.69 372.36
  Q 177.47 374.08 163.25 373.66
  C 154.16 373.40 146.05 374.11 138.76 373.44
  Q 111.21 370.93 88.02 362.73
  C 59.79 352.75 34.49 333.19 19.40 307.06
  C 2.36 277.55 -0.49 244.98 4.72 211.83
  C 12.39 162.90 53.32 126.56 98.98 113.45
  Q 117.63 108.09 134.88 107.44
  Q 152.86 106.77 170.25 107.05
  Q 182.71 107.26 194.97 109.03
  Q 233.07 114.53 265.56 138.42
  C 268.14 140.32 267.51 142.02 265.76 144.44
  Q 244.42 173.99 240.18 179.84
  A 1.20 1.19 -54.1 0 1 238.52 180.11
  Q 231.39 174.94 230.12 174.12
  C 220.05 167.66 209.65 163.19 197.55 160.26
  C 168.47 153.22 134.05 153.87 105.98 165.45
  Q 86.41 173.53 72.19 189.88
  C 49.10 216.42 46.68 255.11 65.21 284.77
  C 76.46 302.77 94.72 315.31 114.99 321.88
  Q 131.20 327.13 151.25 327.94
  Q 173.57 328.85 194.84 324.40
  Q 220.69 318.99 240.24 301.76
  Z"
/>
<path fill="#000000" d="
  M 434.74 107.39
  Q 455.29 107.40 465.59 107.96
  Q 471.44 108.28 480.10 110.30
  C 499.19 114.76 519.49 122.31 535.45 133.27
  Q 579.31 163.39 587.82 217.68
  Q 589.47 228.16 589.46 240.09
  Q 589.46 252.01 587.80 262.49
  Q 579.22 316.77 535.33 346.85
  C 519.36 357.79 499.05 365.32 479.96 369.76
  Q 471.29 371.77 465.45 372.08
  Q 455.15 372.63 434.60 372.61
  Q 414.06 372.60 403.75 372.05
  Q 397.91 371.73 389.25 369.71
  C 370.16 365.25 349.86 357.70 333.90 346.74
  Q 290.04 316.62 281.52 262.32
  Q 279.88 251.85 279.88 239.92
  Q 279.89 227.99 281.54 217.52
  Q 290.12 163.23 334.01 133.16
  C 349.99 122.22 370.29 114.69 389.39 110.25
  Q 398.05 108.24 403.90 107.93
  Q 414.20 107.38 434.74 107.39
  Z
  M 331.13 242.08
  C 331.16 269.24 343.18 293.06 365.61 308.63
  C 386.79 323.33 412.10 328.22 437.34 328.19
  C 462.58 328.16 487.88 323.21 509.02 308.46
  C 531.41 292.84 543.37 268.99 543.34 241.83
  C 543.31 214.67 531.29 190.85 508.86 175.28
  C 487.68 160.58 462.37 155.69 437.13 155.72
  C 411.89 155.75 386.59 160.70 365.45 175.45
  C 343.06 191.07 331.10 214.92 331.13 242.08
  Z"
/>
<path fill="#000000" d="
  M 1113.12 120.00
  L 1113.12 165.63
  A 1.12 1.12 0.0 0 1 1112.00 166.75
  L 1027.49 166.75
  A 1.12 1.12 0.0 0 0 1026.37 167.87
  L 1026.37 368.62
  A 1.12 1.12 0.0 0 1 1025.25 369.74
  L 979.74 369.74
  A 1.12 1.12 0.0 0 1 978.62 368.62
  L 978.62 167.87
  A 1.12 1.12 0.0 0 0 977.50 166.75
  L 890.88 166.75
  A 1.12 1.12 0.0 0 1 889.76 165.63
  L 889.76 120.00
  A 1.12 1.12 0.0 0 1 890.88 118.88
  L 1112.00 118.88
  A 1.12 1.12 0.0 0 1 1113.12 120.00
  Z"
/>
<path fill="#000000" d="
  M 757.16 228.60
  Q 757.39 228.86 757.62 229.13
  Q 785.69 261.45 817.81 297.65
  A 0.83 0.82 24.3 0 0 819.26 297.11
  L 819.26 120.87
  A 1.53 1.53 0.0 0 1 820.79 119.34
  Q 842.56 119.35 865.53 119.34
  Q 867.75 119.34 867.75 121.51
  Q 867.74 279.83 867.76 367.51
  Q 867.76 369.62 865.14 369.62
  Q 842.91 369.55 821.77 369.60
  Q 819.96 369.60 818.50 367.99
  Q 807.24 355.58 723.35 260.34
  Q 723.12 260.07 722.89 259.81
  Q 694.82 227.49 662.70 191.29
  A 0.83 0.82 24.3 0 0 661.25 191.83
  L 661.25 368.07
  A 1.53 1.53 0.0 0 1 659.72 369.60
  Q 637.95 369.59 614.98 369.60
  Q 612.76 369.60 612.76 367.43
  Q 612.77 209.11 612.75 121.43
  Q 612.75 119.32 615.37 119.32
  Q 637.60 119.39 658.74 119.34
  Q 660.55 119.34 662.01 120.94
  Q 673.27 133.35 757.16 228.60
  Z"
/>
<path fill="#000000" d="
  M 1201.40 119.50
  Q 1211.22 119.50 1220.71 119.56
  A 2.17 2.15 77.1 0 1 1222.64 120.79
  L 1342.75 368.66
  A 0.74 0.74 0.0 0 1 1342.08 369.72
  Q 1312.73 369.79 1298.28 369.70
  C 1295.89 369.69 1294.42 367.81 1293.34 365.58
  Q 1292.26 363.37 1273.04 323.90
  A 2.03 2.02 76.8 0 0 1271.22 322.76
  Q 1261.11 322.75 1201.41 322.75
  Q 1141.70 322.75 1131.60 322.77
  A 2.03 2.02 -76.8 0 0 1129.77 323.91
  Q 1110.56 363.38 1109.48 365.59
  C 1108.40 367.82 1106.93 369.70 1104.54 369.71
  Q 1090.09 369.80 1060.74 369.73
  A 0.74 0.74 0.0 0 1 1060.07 368.67
  L 1180.15 120.79
  A 2.17 2.15 -77.1 0 1 1182.09 119.57
  Q 1191.57 119.50 1201.40 119.50
  Z
  M 1154.00 273.35
  A 1.00 1.00 0.0 0 0 1154.89 274.79
  L 1247.99 274.95
  A 1.00 1.00 0.0 0 0 1248.89 273.52
  L 1202.51 177.33
  A 1.00 1.00 0.0 0 0 1200.71 177.33
  L 1154.00 273.35
  Z"
/>
<path fill="#000000" d="
  M 1352.21 120.63
  A 0.70 0.70 0.0 0 1 1352.76 119.50
  L 1404.06 119.50
  A 1.13 1.11 70.5 0 1 1404.94 119.93
  L 1479.59 214.80
  A 0.59 0.59 0.0 0 0 1480.51 214.81
  L 1558.62 120.17
  A 1.52 1.50 19.3 0 1 1559.79 119.62
  Q 1586.24 119.62 1609.56 119.63
  Q 1610.00 119.63 1610.21 119.74
  A 0.96 0.96 0.0 0 1 1610.47 121.18
  Q 1603.60 129.52 1505.90 247.91
  A 0.50 0.50 0.0 0 0 1505.89 248.52
  Q 1577.18 338.98 1599.99 368.00
  Q 1600.33 368.42 1600.34 368.90
  A 0.70 0.70 0.0 0 1 1599.64 369.62
  L 1548.92 369.62
  A 1.21 1.20 -19.2 0 1 1547.98 369.17
  L 1479.27 281.85
  A 0.85 0.85 0.0 0 0 1477.95 281.83
  L 1405.92 369.10
  A 1.77 1.77 0.0 0 1 1404.55 369.75
  L 1354.52 369.75
  A 0.88 0.88 0.0 0 1 1353.84 368.32
  L 1452.21 249.14
  A 1.13 1.11 -44.6 0 0 1452.23 247.74
  L 1352.21 120.63
  Z"
/>
<path fill="#000000" d="
  M 2844.00 128.04
  L 2844.00 167.71
  L 2804.56 168.03
  A 1.20 1.20 0.0 0 0 2803.37 169.23
  L 2804.26 341.74
  A 1.26 1.25 89.8 0 0 2805.51 342.99
  L 2844.00 343.06
  L 2844.00 382.69
  L 2625.39 383.72
  A 0.52 0.52 0.0 0 1 2624.87 383.20
  Q 2624.83 352.95 2624.89 346.44
  Q 2624.91 343.59 2627.77 343.56
  Q 2640.82 343.45 2671.75 343.52
  C 2674.19 343.52 2674.58 342.17 2674.58 339.92
  Q 2674.58 277.54 2674.58 171.00
  Q 2674.58 168.47 2671.76 168.48
  Q 2640.50 168.54 2630.54 168.49
  Q 2626.76 168.47 2625.62 167.69
  Q 2623.61 166.32 2623.60 163.22
  Q 2623.54 133.47 2623.63 131.69
  C 2623.76 129.18 2625.41 128.58 2627.80 128.45
  Q 2631.49 128.24 2637.75 128.26
  Q 2688.61 128.38 2737.25 128.14
  Q 2790.63 127.89 2844.00 128.04
  Z
  M 2762.2466 170.8058
  A 2.59 2.59 0.0 0 0 2759.6386 168.2340
  L 2717.1997 168.5303
  A 2.59 2.59 0.0 0 0 2714.6278 171.1383
  L 2715.8134 340.9542
  A 2.59 2.59 0.0 0 0 2718.4214 343.5260
  L 2760.8603 343.2297
  A 2.59 2.59 0.0 0 0 2763.4322 340.6217
  L 2762.2466 170.8058
  Z"
/>
<path fill="#000000" d="
  M 2552.15 156.98
  Q 2553.22 159.56 2552.02 161.30
  Q 2542.77 174.57 2535.82 185.06
  Q 2533.21 189.00 2528.59 188.79
  Q 2526.51 188.69 2520.91 185.18
  Q 2510.87 178.87 2502.89 176.44
  Q 2474.50 167.80 2445.51 172.77
  Q 2428.23 175.74 2415.00 181.53
  Q 2405.90 185.51 2404.39 196.18
  C 2403.61 201.72 2406.46 207.22 2410.66 210.59
  C 2418.16 216.60 2427.38 219.91 2436.55 222.26
  Q 2467.48 230.19 2505.92 239.62
  Q 2525.96 244.53 2541.51 251.01
  Q 2550.92 254.93 2559.78 262.42
  C 2574.60 274.95 2582.18 292.20 2580.36 311.76
  C 2578.95 326.87 2572.42 341.75 2561.21 351.96
  C 2552.32 360.06 2541.61 365.44 2529.49 370.34
  C 2502.55 381.23 2475.16 386.15 2446.52 382.21
  Q 2397.64 375.49 2358.82 344.77
  A 2.34 2.27 -86.6 0 1 2358.26 344.12
  C 2356.58 341.18 2357.60 339.21 2360.01 336.85
  Q 2363.48 333.45 2380.18 316.67
  C 2384.68 312.15 2387.50 314.43 2391.63 318.06
  Q 2401.08 326.33 2411.85 331.38
  C 2434.34 341.93 2460.38 346.51 2484.98 342.45
  Q 2507.50 338.73 2527.63 327.35
  C 2534.60 323.40 2540.14 318.43 2539.81 309.64
  Q 2539.54 302.07 2537.59 297.94
  Q 2534.31 290.97 2526.15 288.12
  Q 2498.77 278.56 2473.20 273.14
  Q 2465.34 271.48 2459.93 269.99
  Q 2451.12 267.56 2446.75 266.41
  Q 2433.12 262.80 2411.75 255.57
  Q 2400.92 251.91 2393.07 247.49
  Q 2364.77 231.52 2363.63 198.49
  C 2362.25 158.59 2401.18 138.71 2434.77 133.28
  Q 2490.36 124.30 2540.08 149.70
  Q 2546.53 152.99 2551.46 156.16
  A 1.90 1.85 5.6 0 1 2552.15 156.98
  Z"
/>
<path fill="#000000" d="
  M 2206.90 374.00
  Q 2190.65 374.08 2185.50 374.45
  Q 2181.57 374.74 2180.00 371.76
  Q 2175.94 364.08 2060.09 145.40
  Q 2059.38 144.07 2059.49 143.17
  A 1.90 1.88 -86.2 0 1 2061.37 141.51
  Q 2066.67 141.55 2099.07 141.46
  Q 2104.85 141.44 2107.54 146.53
  Q 2117.18 164.78 2203.01 328.54
  C 2203.62 329.70 2205.13 332.49 2206.72 332.48
  C 2208.31 332.47 2209.79 329.67 2210.39 328.50
  Q 2294.74 163.98 2304.22 145.65
  Q 2306.86 140.53 2312.64 140.50
  Q 2345.04 140.30 2350.34 140.21
  A 1.90 1.88 85.7 0 1 2352.24 141.85
  Q 2352.35 142.75 2351.66 144.09
  Q 2237.78 363.80 2233.79 371.52
  Q 2232.24 374.51 2228.31 374.26
  Q 2223.16 373.93 2206.90 374.00
  Z"
/>
<path fill="#ffffff" d="
  M 437.13 155.72
  C 462.37 155.69 487.68 160.58 508.86 175.28
  C 531.29 190.85 543.31 214.67 543.34 241.83
  C 543.37 268.99 531.41 292.84 509.02 308.46
  C 487.88 323.21 462.58 328.16 437.34 328.19
  C 412.10 328.22 386.79 323.33 365.61 308.63
  C 343.18 293.06 331.16 269.24 331.13 242.08
  C 331.10 214.92 343.06 191.07 365.45 175.45
  C 386.59 160.70 411.89 155.75 437.13 155.72
  Z"
/>
<path fill="#ffffff" d="
  M 2844.00 167.71
  L 2844.00 343.06
  L 2805.51 342.99
  A 1.26 1.25 89.8 0 1 2804.26 341.74
  L 2803.37 169.23
  A 1.20 1.20 0.0 0 1 2804.56 168.03
  L 2844.00 167.71
  Z"
/>
<path fill="#ffffff" d="
  M 2763.4322 340.6217
  A 2.59 2.59 0.0 0 1 2760.8603 343.2297
  L 2718.4214 343.5260
  A 2.59 2.59 0.0 0 1 2715.8134 340.9542
  L 2714.6278 171.1383
  A 2.59 2.59 0.0 0 1 2717.1997 168.5303
  L 2759.6386 168.2340
  A 2.59 2.59 0.0 0 1 2762.2466 170.8058
  L 2763.4322 340.6217
  Z"
/>
<path fill="#ffffff" d="
  M 1154.00 273.35
  L 1200.71 177.33
  A 1.00 1.00 0.0 0 1 1202.51 177.33
  L 1248.89 273.52
  A 1.00 1.00 0.0 0 1 1247.99 274.95
  L 1154.89 274.79
  A 1.00 1.00 0.0 0 1 1154.00 273.35
  Z"
/>
</svg>
