<?xml version="1.0" encoding="UTF-8" standalone="no"?>
<svg xmlns="http://www.w3.org/2000/svg" version="1.1" viewBox="0 0 -10 200" width="1345" height="200">
  
  <g transform="translate(-35	, -20)" fill="#000000">
    <path d="M 131.06 171.13 A 0.41 0.40 -42.5 0 1 131.63 171.15 L 143.51 183.79 A 0.81 0.80 47.2 0 1 143.47 184.94 C 133.74 193.69 122.98 197.32 108.99 199.46 Q 105.24 200.04 99.99 199.85 C 96.55 199.72 91.84 200.09 88.01 199.55 Q 76.95 198.02 69.89 195.36 C 44.08 185.65 32.17 162.07 36.93 135.00 C 41.24 110.53 64.45 94.78 88.08 93.40 Q 91.58 93.19 102.52 93.23 C 116.73 93.28 130.12 97.33 141.36 105.93 A 1.29 1.28 36.6 0 1 141.63 107.70 L 131.09 122.29 A 0.52 0.52 0.0 0 1 130.34 122.39 Q 123.04 116.35 113.25 114.25 C 100.02 111.42 83.06 112.14 71.47 119.66 C 51.02 132.93 51.11 161.44 71.55 174.69 C 80.11 180.24 90.22 181.90 100.57 181.62 C 112.51 181.28 122.58 178.71 131.06 171.13 Z"/>
    <path d="M 208.86 93.32 Q 214.38 93.32 220.22 93.45 Q 225.82 93.57 236.09 97.15 C 258.35 104.93 270.78 123.20 270.78 146.37 C 270.79 169.54 258.36 187.82 236.10 195.60 Q 225.84 199.19 220.23 199.31 Q 214.39 199.43 208.87 199.43 Q 203.35 199.44 197.51 199.31 Q 191.91 199.19 181.64 195.61 C 159.38 187.83 146.95 169.56 146.95 146.39 C 146.95 123.22 159.37 104.94 181.63 97.16 Q 191.90 93.57 197.50 93.45 Q 203.34 93.32 208.86 93.32 Z M 167.49 147.20 C 167.50 167.66 183.79 179.69 202.78 181.28 Q 207.31 181.66 209.95 181.66 Q 212.60 181.66 217.13 181.27 C 236.12 179.66 252.39 167.60 252.37 147.14 C 252.36 126.69 236.08 114.66 217.08 113.06 Q 212.55 112.68 209.91 112.69 Q 207.26 112.69 202.73 113.07 C 183.74 114.69 167.48 126.75 167.49 147.20 Z"/>
    <path d="M 324.14 154.36 Q 315.77 144.68 300.31 127.19 Q 300.01 126.85 299.66 126.73 A 0.14 0.14 0.0 0 0 299.48 126.86 L 299.48 197.69 A 0.55 0.55 0.0 0 1 298.93 198.24 L 280.64 198.24 A 0.58 0.57 0.0 0 1 280.06 197.67 L 280.06 98.81 A 0.67 0.67 0.0 0 1 280.73 98.14 L 298.57 98.14 A 1.68 1.65 69.1 0 1 299.82 98.71 Q 335.40 139.03 337.99 142.01 Q 346.36 151.69 361.82 169.18 Q 362.12 169.52 362.47 169.64 A 0.14 0.14 0.0 0 0 362.65 169.51 L 362.65 98.68 A 0.55 0.55 0.0 0 1 363.20 98.13 L 381.49 98.13 A 0.58 0.57 0.0 0 1 382.07 98.70 L 382.07 197.56 A 0.67 0.67 0.0 0 1 381.40 198.23 L 363.56 198.23 A 1.68 1.65 69.1 0 1 362.31 197.66 Q 326.73 157.34 324.14 154.36 Z"/>
    <path d="M 480.18 98.33 L 480.18 116.71 A 0.38 0.38 0.0 0 1 479.80 117.09 L 445.85 117.09 A 0.38 0.38 0.0 0 0 445.47 117.47 L 445.47 197.90 A 0.38 0.38 0.0 0 1 445.09 198.28 L 426.75 198.28 A 0.38 0.38 0.0 0 1 426.37 197.90 L 426.37 117.47 A 0.38 0.38 0.0 0 0 425.99 117.09 L 391.21 117.09 A 0.38 0.38 0.0 0 1 390.83 116.71 L 390.83 98.33 A 0.38 0.38 0.0 0 1 391.21 97.95 L 479.80 97.95 A 0.38 0.38 0.0 0 1 480.18 98.33 Z"/>
    <path d="M 515.49 98.19 Q 519.51 98.19 523.16 98.23 A 0.88 0.87 77.0 0 1 523.94 98.72 L 571.97 197.69 A 0.42 0.42 0.0 0 1 571.59 198.29 L 554.25 198.29 A 1.90 1.90 0.0 0 1 552.54 197.22 L 544.21 180.06 A 0.94 0.93 76.6 0 0 543.35 179.53 Q 542.38 179.54 515.50 179.54 Q 488.62 179.55 487.64 179.54 A 0.94 0.93 -76.6 0 0 486.78 180.07 L 478.46 197.23 A 1.90 1.90 0.0 0 1 476.75 198.30 L 459.41 198.30 A 0.42 0.42 0.0 0 1 459.03 197.70 L 507.03 98.72 A 0.88 0.87 -77.0 0 1 507.82 98.23 Q 511.46 98.19 515.49 98.19 Z M 496.51 159.78 A 0.38 0.38 0.0 0 0 496.85 160.32 L 534.15 160.39 A 0.38 0.38 0.0 0 0 534.49 159.84 L 515.91 121.32 A 0.38 0.38 0.0 0 0 515.22 121.32 L 496.51 159.78 Z"/>
    <path d="M 654.16 198.14 L 626.58 163.10 A 0.30 0.30 0.0 0 0 626.11 163.10 L 597.19 198.17 A 0.30 0.30 0.0 0 1 596.96 198.28 L 576.65 198.28 A 0.30 0.30 0.0 0 1 576.41 197.79 L 615.87 149.96 A 0.30 0.30 0.0 0 0 615.87 149.58 L 575.81 98.69 A 0.30 0.30 0.0 0 1 576.05 98.20 L 596.59 98.20 A 0.30 0.30 0.0 0 1 596.83 98.31 L 626.70 136.27 A 0.30 0.30 0.0 0 0 627.17 136.27 L 658.42 98.38 A 0.30 0.30 0.0 0 1 658.65 98.27 L 678.95 98.27 A 0.30 0.30 0.0 0 1 679.19 98.76 L 637.33 149.50 A 0.30 0.30 0.0 0 0 637.33 149.88 L 675.03 197.76 A 0.30 0.30 0.0 0 1 674.79 198.25 L 654.40 198.25 A 0.30 0.30 0.0 0 1 654.16 198.14 Z"/>
  </g>

  <g transform="translate(00, 20) scale(1.25)" fill="#000000">
    <path fill="#ed1f25" d="M 648.2418 20.1500 A 0.91 0.91 0.0 0 1 647.3349 21.0632 L 546.0556 21.4167 A 0.91 0.91 0.0 0 1 545.1424 20.5099 L 545.1182 13.5900 A 0.91 0.91 0.0 0 1 546.0251 12.6768 L 647.3044 12.3233 A 0.91 0.91 0.0 0 1 648.2176 13.2301 L 648.2418 20.1500 Z"/>
    <path fill="#ed1f25" d="M 648.13 41.18 L 611.99 41.18 A 0.49 0.49 0.0 0 0 611.50 41.67 L 611.50 128.00 A 0.32 0.32 0.0 0 1 611.20 128.32 L 603.25 128.84 A 0.26 0.25 86.8 0 1 602.98 128.59 Q 602.18 83.41 602.63 41.64 C 602.67 38.43 602.02 32.87 606.74 32.73 Q 627.18 32.14 647.65 32.71 A 0.28 0.28 0.0 0 1 647.93 32.98 L 648.31 40.99 A 0.18 0.18 0.0 0 1 648.13 41.18 Z"/>
    <path fill="#ed1f25" d="M 582.22 127.30 L 582.22 42.02 A 0.71 0.71 0.0 0 0 581.51 41.31 L 547.69 41.31 A 2.33 2.32 83.4 0 1 545.43 39.51 Q 544.78 36.69 545.22 34.21 A 1.32 1.31 4.5 0 1 546.49 33.13 Q 570.60 32.65 585.25 32.78 C 589.69 32.81 590.71 35.35 590.84 39.56 Q 591.17 50.33 591.05 55.53 Q 590.84 64.09 590.87 71.48 Q 591.03 110.63 591.06 118.25 Q 591.07 121.37 591.38 127.27 A 1.28 1.28 0.0 0 1 590.10 128.62 L 583.53 128.62 A 1.32 1.31 90.0 0 1 582.22 127.30 Z"/>
    <path d="M 706.11 128.03 Q 702.45 128.05 698.99 128.14 A 1.65 1.64 75.2 0 1 697.49 127.26 L 658.99 54.58 A 0.68 0.68 0.0 0 1 659.59 53.58 L 671.75 53.58 A 2.84 2.84 0.0 0 1 674.26 55.09 Q 678.10 62.36 704.92 113.56 Q 705.54 114.74 706.05 114.73 Q 706.56 114.73 707.17 113.55 Q 733.53 62.11 737.30 54.81 A 2.84 2.84 0.0 0 1 739.80 53.27 L 751.96 53.16 A 0.68 0.68 0.0 0 1 752.57 54.16 L 714.72 127.18 A 1.65 1.64 -75.7 0 1 713.23 128.08 Q 709.77 128.02 706.11 128.03 Z"/>
    <path d="M 816.53 59.90 L 811.22 67.68 A 2.44 2.44 0.0 0 1 807.87 68.36 C 805.21 66.65 803.13 65.44 800.19 64.58 Q 787.30 60.82 773.52 66.01 Q 770.70 67.07 769.77 69.26 C 766.81 76.25 776.74 78.76 781.95 80.06 Q 795.97 83.58 800.56 84.70 Q 810.67 87.16 815.01 89.53 C 824.34 94.62 828.02 103.92 824.22 113.94 C 821.76 120.45 816.65 123.80 810.04 126.55 Q 795.96 132.42 783.24 130.72 Q 767.17 128.58 754.78 118.71 A 1.45 1.45 0.0 0 1 754.66 116.55 L 761.85 109.36 A 1.78 1.77 -45.3 0 1 764.34 109.34 Q 768.28 113.20 774.29 115.51 Q 792.07 122.34 808.64 113.15 C 810.69 112.01 812.57 110.40 812.64 107.95 Q 812.77 102.95 809.77 101.20 Q 808.33 100.36 802.71 98.70 Q 796.79 96.94 795.53 96.68 Q 781.91 93.83 770.04 89.53 Q 758.77 85.45 756.70 75.76 C 752.98 58.31 770.63 51.20 784.24 50.32 Q 801.32 49.21 816.14 58.11 A 1.27 1.25 -57.6 0 1 816.53 59.90 Z"/>
    <path d="M 890.71 130.83 Q 846.35 131.00 839.98 131.12 A 0.15 0.15 0.0 0 1 839.83 130.97 L 839.83 119.29 A 1.02 1.01 -90.0 0 1 840.84 118.27 L 854.96 118.27 A 0.78 0.77 0.0 0 0 855.74 117.50 L 855.74 62.92 A 0.65 0.64 90.0 0 0 855.10 62.27 L 840.97 62.27 A 1.55 1.55 0.0 0 1 839.42 60.72 L 839.42 50.61 A 1.20 1.19 -2.6 0 1 840.51 49.42 Q 842.48 49.25 845.25 49.29 Q 857.09 49.44 890.39 49.31 Q 923.69 49.18 935.52 48.93 Q 938.30 48.87 940.27 49.03 A 1.20 1.19 2.2 0 1 941.37 50.21 L 941.45 60.32 A 1.55 1.55 0.0 0 1 939.91 61.88 L 925.78 61.99 A 0.65 0.64 89.5 0 0 925.14 62.65 L 925.57 117.22 A 0.78 0.77 -0.5 0 0 926.36 117.99 L 940.48 117.88 A 1.02 1.01 89.5 0 1 941.50 118.89 L 941.59 130.57 A 0.15 0.15 0.0 0 1 941.44 130.72 Q 935.07 130.65 890.71 130.83 Z M 912.1655 62.4305 A 0.45 0.45 0.0 0 0 911.7131 61.9829 L 897.3933 62.0579 A 0.45 0.45 0.0 0 0 896.9457 62.5102 L 897.2345 117.6695 A 0.45 0.45 0.0 0 0 897.6869 118.1171 L 912.0067 118.0421 A 0.45 0.45 0.0 0 0 912.4543 117.5898 L 912.1655 62.4305 Z M 883.7904 63.0175 A 0.90 0.90 0.0 0 0 882.8842 62.1238 L 869.4445 62.2176 A 0.90 0.90 0.0 0 0 868.5508 63.1239 L 868.9296 117.3825 A 0.90 0.90 0.0 0 0 869.8358 118.2762 L 883.2755 118.1824 A 0.90 0.90 0.0 0 0 884.1692 117.2761 L 883.7904 63.0175 Z"/>
  </g>
</svg>