<?xml version="1.0" encoding="UTF-8" standalone="no"?>
<svg xmlns="http://www.w3.org/2000/svg" version="1.1" viewBox="18.00 10.00 851.00 102.00" width="851" height="102">
  <g fill="#000000">
    <path d="M 106.95 40.01 Q 91.24 27.44 70.76 29.76 C 55.91 31.45 40.53 39.17 37.54 55.56 Q 33.98 74.99 49.70 86.02 Q 59.19 92.69 70.19 94.24 Q 91.64 97.26 107.19 83.82 A 1.86 1.85 49.9 0 1 109.84 84.05 L 119.27 95.53 A 1.54 1.54 0.0 0 1 119.04 97.72 C 103.42 110.07 85.26 113.90 65.62 111.16 C 46.18 108.44 28.21 95.82 20.92 77.21 Q 16.08 64.87 18.06 52.82 C 20.39 38.56 31.23 24.70 44.12 18.36 Q 57.78 11.63 72.99 11.11 Q 99.10 10.22 119.05 26.73 A 1.40 1.39 -47.9 0 1 119.15 28.79 L 107.98 39.95 A 0.78 0.77 -48.2 0 1 106.95 40.01 Z"/>
    
    <path d="M 121.0189 60.9864 A 58.65 50.53 -179.0 0 1 180.5419 11.4877 A 58.65 50.53 -179.0 0 1 238.3011 63.0336 A 58.65 50.53 -179.0 0 1 178.7781 112.5323 A 58.65 50.53 -179.0 0 1 121.0189 60.9864 Z M 218.82 57.57 C 215.97 40.64 200.34 30.64 184.03 29.72 C 161.66 28.47 137.23 40.86 140.97 67.26 C 142.48 77.86 150.77 87.04 160.51 90.93 C 169.36 94.47 182.18 94.45 192.23 92.73 Q 201.31 91.17 208.71 85.28 Q 221.74 74.89 218.82 57.57 Z"/>
    
    <path d="M 267.83 46.06 A 0.54 0.53 -65.5 0 0 266.90 46.41 L 265.74 105.91 A 0.76 0.76 0.0 0 1 264.98 106.65 L 249.34 106.65 A 1.13 1.13 0.0 0 1 248.21 105.52 L 248.21 19.37 A 1.49 1.49 0.0 0 1 249.63 17.88 Q 254.69 17.64 263.52 17.84 Q 266.95 17.92 269.02 20.47 C 276.10 29.18 283.73 36.90 292.57 46.91 Q 306.98 63.23 321.70 78.88 A 0.77 0.77 0.0 0 0 323.03 78.35 L 323.03 19.26 A 1.35 1.35 0.0 0 1 324.38 17.91 L 339.76 17.91 A 1.62 1.62 0.0 0 1 341.38 19.53 L 341.38 105.61 A 1.00 1.00 0.0 0 1 340.38 106.61 L 324.25 106.61 A 4.15 4.12 -20.8 0 1 321.17 105.24 L 267.83 46.06 Z"/>
    
    <path d="M 392.73 17.36 Q 431.84 17.35 432.25 17.35 Q 435.38 17.38 435.37 20.24 Q 435.32 30.23 435.07 34.38 A 1.61 1.60 -88.3 0 1 433.47 35.89 Q 406.41 35.82 404.01 35.93 Q 402.07 36.02 402.18 38.27 Q 402.21 38.69 402.21 39.27 Q 402.22 94.62 402.18 101.99 Q 402.17 104.19 401.61 105.60 A 0.76 0.75 10.9 0 1 400.91 106.07 Q 396.74 106.06 392.76 106.06 Q 388.79 106.06 384.62 106.08 A 0.76 0.75 -11.0 0 1 383.92 105.61 Q 383.35 104.20 383.34 102.00 Q 383.30 94.63 383.26 39.28 Q 383.26 38.70 383.29 38.28 Q 383.40 36.03 381.46 35.94 Q 379.06 35.83 352.00 35.92 A 1.61 1.60 88.2 0 1 350.40 34.41 Q 350.15 30.26 350.09 20.27 Q 350.07 17.41 353.21 17.38 Q 353.61 17.38 392.73 17.36 Z"/>
    
    <path d="M 421.39 105.99 A 1.21 1.20 14.8 0 1 420.36 104.23 Q 423.71 97.81 427.74 89.90 Q 445.88 54.33 463.22 20.00 Q 464.62 17.23 467.82 17.11 Q 474.07 16.90 480.45 17.35 A 3.25 3.24 -11.3 0 1 483.12 19.12 L 526.99 105.59 A 0.73 0.73 0.0 0 1 526.33 106.65 L 510.11 106.33 A 3.04 3.04 0.0 0 1 507.50 104.76 Q 505.19 100.61 502.47 95.04 C 501.02 92.08 499.54 91.52 496.03 91.49 Q 467.80 91.20 448.78 91.57 Q 446.93 91.61 445.69 93.16 Q 444.28 94.91 439.79 104.04 Q 438.71 106.24 435.23 106.28 Q 430.93 106.33 421.39 105.99 Z M 456.82 70.98 A 1.41 1.41 0.0 0 0 458.08 73.04 L 488.88 73.04 A 1.41 1.41 0.0 0 0 490.14 70.98 L 474.73 41.31 A 1.41 1.41 0.0 0 0 472.23 41.31 L 456.82 70.98 Z"/>
    
    <path d="M 530.38 106.34 A 0.83 0.83 0.0 0 1 529.78 104.97 L 565.25 62.89 A 2.19 2.19 0.0 0 0 565.26 60.08 L 531.13 18.54 A 0.72 0.71 68.6 0 1 531.64 17.37 Q 538.31 17.01 544.49 17.07 C 549.66 17.12 552.24 16.74 555.41 20.61 Q 571.66 40.41 575.03 44.21 Q 576.40 45.75 577.32 46.57 A 0.99 0.98 40.4 0 0 578.72 46.46 L 602.27 18.53 A 3.87 3.86 -69.9 0 1 605.23 17.15 L 626.43 17.15 A 0.71 0.70 20.1 0 1 626.97 18.31 L 590.89 61.11 A 1.40 1.40 0.0 0 0 590.90 62.92 L 627.18 105.64 A 0.74 0.74 0.0 0 1 626.61 106.86 L 606.16 106.86 A 4.01 4.00 69.8 0 1 603.11 105.45 L 579.08 77.15 A 0.74 0.74 0.0 0 0 578.03 77.08 Q 575.16 79.68 574.14 80.88 Q 562.89 94.15 554.75 104.00 C 553.50 105.50 551.94 106.53 549.77 106.57 Q 538.87 106.77 530.38 106.34 Z"/>
    
    <path 
  fill="#000000" 
  stroke="#000000" 
  stroke-width="2.5" 
  stroke-linejoin="round" 
  paint-order="stroke fill"
  d="M 774.63 54.76 A 1.19 1.18 0.0 0 1 775.82 55.94 Q 775.84 61.43 775.52 80.30 C 775.45 83.95 774.61 88.41 774.15 90.73 Q 770.91 106.83 754.43 110.60 Q 751.07 111.36 742.61 111.56 Q 705.93 112.42 692.00 111.61 C 675.46 110.65 656.24 108.56 649.88 90.41 Q 648.56 86.65 648.11 80.48 C 647.13 66.74 646.56 54.64 647.55 42.50 C 648.19 34.58 649.01 28.09 653.85 22.36 C 659.95 15.13 670.87 12.18 680.25 11.70 Q 681.00 11.66 698.50 10.96 Q 706.40 10.64 746.75 12.42 Q 749.89 12.56 755.48 14.03 C 769.40 17.68 775.64 33.09 775.71 46.35 A 1.43 1.43 0.0 0 1 774.28 47.79 L 744.55 47.79 A 0.69 0.69 0.0 0 1 743.86 47.03 Q 744.64 39.46 736.99 37.77 C 733.17 36.93 728.43 36.35 724.27 36.17 Q 709.03 35.49 693.53 36.33 Q 689.74 36.53 684.69 37.94 C 677.98 39.81 677.45 47.08 677.40 53.02 Q 677.29 66.75 677.80 73.24 C 678.58 83.33 683.92 85.85 693.07 87.04 C 701.59 88.14 708.95 87.83 718.35 87.76 Q 725.84 87.70 733.45 87.07 C 738.87 86.62 742.60 86.61 743.66 80.97 Q 744.18 78.21 743.92 75.91 A 1.18 1.17 -3.3 0 0 742.75 74.87 L 707.66 74.87 A 1.32 1.32 0.0 0 1 706.34 73.55 L 706.34 55.31 A 0.55 0.55 0.0 0 1 706.89 54.76 L 774.63 54.76 Z M 747.39 43.43 A 0.87 0.87 0.0 0 0 748.25 44.20 L 771.09 44.20 A 0.75 0.74 87.2 0 0 771.83 43.38 Q 770.92 34.87 766.79 27.45 C 761.68 18.26 752.54 16.89 743.00 16.10 Q 732.63 15.25 713.76 14.57 Q 706.06 14.29 679.87 15.57 C 675.03 15.81 669.86 16.90 665.63 18.59 Q 653.31 23.53 651.79 36.76 Q 649.31 58.43 651.30 78.00 C 652.36 88.41 654.06 96.20 663.54 101.49 C 672.48 106.49 681.14 107.10 692.01 107.68 Q 712.76 108.77 739.23 108.11 Q 748.60 107.87 754.60 106.57 C 766.78 103.93 771.41 93.76 771.58 82.01 Q 771.87 62.15 771.83 59.42 A 1.13 1.13 0.0 0 0 770.70 58.30 L 710.46 58.30 A 0.61 0.60 90.0 0 0 709.86 58.91 L 709.86 70.10 A 1.17 1.17 0.0 0 0 711.03 71.27 L 746.23 71.27 A 1.34 1.34 0.0 0 1 747.57 72.54 Q 747.89 77.69 747.01 82.53 Q 746.01 88.01 740.44 89.69 Q 735.57 91.17 732.99 91.17 Q 731.76 91.18 705.75 91.38 Q 696.46 91.45 688.77 90.02 Q 679.71 88.34 676.21 81.38 Q 674.17 77.33 674.21 68.53 Q 674.26 56.40 674.39 49.00 C 674.51 42.56 676.67 36.49 683.42 34.40 Q 688.81 32.73 693.27 32.58 Q 707.47 32.10 724.68 32.64 C 732.27 32.88 746.15 33.45 747.39 43.43 Z"/>

<path 
  fill="#000000" 
  stroke="#000000" 
  stroke-width="2.5" 
  stroke-linejoin="round" 
  paint-order="stroke fill"
  d="M 868.69 110.11 A 0.37 0.36 0.8 0 1 868.31 110.47 Q 858.49 110.35 840.81 110.73 Q 838.82 110.78 838.83 108.44 Q 839.01 74.57 838.33 35.64 A 0.60 0.59 -18.2 0 0 837.39 35.17 L 804.07 58.95 A 1.01 1.01 0.0 0 1 802.64 58.69 L 789.83 39.60 A 1.19 1.19 0.0 0 1 790.16 37.95 Q 813.19 22.67 829.03 12.29 Q 831.71 10.53 835.51 10.46 Q 851.55 10.15 867.84 10.61 A 0.87 0.87 0.0 0 1 868.69 11.48 L 868.69 110.11 Z M 865.15 105.76 L 865.15 15.38 A 1.26 1.25 -89.3 0 0 863.93 14.12 Q 849.40 13.75 837.49 14.16 Q 833.02 14.31 829.90 16.38 Q 801.23 35.34 795.25 39.32 A 0.77 0.77 0.0 0 0 795.04 40.38 L 803.37 52.80 A 1.38 1.38 0.0 0 0 805.31 53.16 Q 830.23 35.60 834.22 32.69 Q 837.27 30.46 841.02 30.97 A 1.64 1.63 3.8 0 1 842.44 32.59 L 842.44 105.71 A 0.90 0.90 0.0 0 0 843.34 106.61 L 864.30 106.61 A 0.85 0.85 0.0 0 0 865.15 105.76 Z"/>
  </g>
</svg>