<?xml version="1.0" encoding="UTF-8" standalone="no"?>
<svg xmlns="http://www.w3.org/2000/svg" version="1.1" viewBox="26.00 97.00 312.00 55.00" width="312" height="55">
  <g fill="#000000">
    <path d="M 33.44 129.26 C 33.62 141.22 50.54 144.47 58.09 137.60 A 1.03 1.02 -43.6 0 1 59.51 137.63 L 62.96 141.07 A 0.87 0.86 48.0 0 1 62.90 142.35 Q 53.58 150.11 41.74 147.22 C 33.29 145.16 26.64 138.12 26.51 129.37 C 26.38 120.61 32.83 113.38 41.21 111.07 Q 52.96 107.83 62.50 115.32 A 0.87 0.86 -49.7 0 1 62.60 116.59 L 59.25 120.13 A 1.03 1.02 41.9 0 1 57.84 120.21 C 50.08 113.57 33.27 117.31 33.44 129.26 Z"/>
    <path d="M 104.3092 128.7852 A 21.18 18.99 -0.5 0 1 83.2957 147.9593 A 21.18 18.99 -0.5 0 1 61.9508 129.1548 A 21.18 18.99 -0.5 0 1 82.9643 109.9807 A 21.18 18.99 -0.5 0 1 104.3092 128.7852 Z M 97.7992 128.9588 A 14.44 12.09 -0.6 0 0 83.2334 117.0207 A 14.44 12.09 -0.6 0 0 68.9208 129.2612 A 14.44 12.09 -0.6 0 0 83.4866 141.1993 A 14.44 12.09 -0.6 0 0 97.7992 128.9588 Z"/>
    <path d="M 139.66 145.29 L 133.74 145.29 A 1.88 1.87 68.8 0 1 132.35 144.67 Q 123.59 134.94 113.97 123.28 Q 113.44 122.64 112.99 122.38 A 0.42 0.41 14.8 0 0 112.37 122.74 L 112.37 144.97 A 0.30 0.30 0.0 0 1 112.07 145.27 L 106.53 145.27 A 0.32 0.31 90.0 0 1 106.22 144.95 L 106.22 112.92 A 0.66 0.66 0.0 0 1 106.88 112.26 L 111.65 112.26 A 1.81 1.80 69.4 0 1 113.01 112.88 L 132.70 135.61 A 0.27 0.27 0.0 0 0 133.18 135.43 L 133.18 112.38 A 0.31 0.31 0.0 0 1 133.49 112.07 L 139.37 112.07 A 0.50 0.50 0.0 0 1 139.87 112.57 L 139.87 145.08 A 0.21 0.21 0.0 0 1 139.66 145.29 Z"/>
    <path d="M 157.81 112.11 Q 165.54 112.07 172.78 112.09 A 0.63 0.63 0.0 0 1 173.40 112.72 L 173.40 118.10 A 0.58 0.58 0.0 0 1 172.82 118.68 L 161.67 118.68 A 0.59 0.59 0.0 0 0 161.08 119.27 L 161.08 144.70 A 0.62 0.61 3.5 0 1 160.39 145.31 Q 158.95 145.12 157.90 145.13 Q 156.85 145.13 155.41 145.32 A 0.62 0.61 -3.8 0 1 154.72 144.72 L 154.58 119.29 A 0.59 0.59 0.0 0 0 153.99 118.70 L 142.84 118.76 A 0.58 0.58 0.0 0 1 142.25 118.18 L 142.23 112.80 A 0.63 0.63 0.0 0 1 142.85 112.17 Q 150.08 112.11 157.81 112.11 Z"/>
    <path d="M 184.83 112.12 Q 186.19 112.12 186.89 112.12 A 1.91 1.91 0.0 0 1 188.59 113.19 L 204.20 144.67 A 0.33 0.32 76.9 0 1 203.91 145.14 L 198.24 145.14 A 0.96 0.95 -12.8 0 1 197.38 144.61 L 195.22 140.26 A 0.98 0.97 76.7 0 0 194.35 139.72 Q 189.60 139.70 184.99 139.73 Q 180.37 139.75 175.62 139.82 A 0.98 0.97 -77.3 0 0 174.76 140.38 L 172.65 144.75 A 0.96 0.95 12.2 0 1 171.80 145.29 L 166.13 145.36 A 0.33 0.32 -77.5 0 1 165.83 144.89 L 181.08 113.23 A 1.91 1.91 0.0 0 1 182.77 112.15 Q 183.47 112.13 184.83 112.12 Z M 178.63 132.73 A 0.45 0.45 0.0 0 0 179.04 133.37 L 191.12 133.16 A 0.45 0.45 0.0 0 0 191.51 132.50 L 185.26 120.38 A 0.45 0.45 0.0 0 0 184.45 120.40 L 178.63 132.73 Z"/>
    <path d="M 222.80 133.87 Q 222.54 133.87 222.49 133.93 Q 218.11 139.42 213.52 145.01 A 0.57 0.57 0.0 0 1 213.08 145.22 L 205.25 145.22 A 0.04 0.04 0.0 0 1 205.22 145.16 L 218.17 128.94 A 0.83 0.83 0.0 0 0 218.17 127.90 L 206.13 112.92 A 0.52 0.52 0.0 0 1 206.53 112.08 L 213.29 112.08 A 1.43 1.43 0.0 0 1 214.40 112.61 Q 217.98 117.10 222.37 122.62 Q 222.49 122.76 222.80 122.76 Q 223.11 122.76 223.23 122.62 Q 227.62 117.10 231.20 112.61 A 1.43 1.43 0.0 0 1 232.31 112.08 L 239.07 112.09 A 0.52 0.52 0.0 0 1 239.47 112.93 L 227.43 127.90 A 0.83 0.83 0.0 0 0 227.43 128.94 L 240.37 145.17 A 0.04 0.04 0.0 0 1 240.34 145.23 L 232.51 145.22 A 0.57 0.57 0.0 0 1 232.07 145.01 Q 227.48 139.42 223.11 133.93 Q 223.06 133.87 222.80 133.87 Z"/>
  </g>

  <g fill="#ed1f25">
    <path d="M 291.2462 101.4313 A 0.96 0.96 0.0 0 1 290.2912 102.3964 L 250.7118 102.6036 A 0.96 0.96 0.0 0 1 249.7468 101.6486 L 249.7338 99.1687 A 0.96 0.96 0.0 0 1 250.6888 98.2036 L 290.2682 97.9964 A 0.96 0.96 0.0 0 1 291.2332 98.9514 L 291.2462 101.4313 Z"/>
    <path d="M 264.00 110.48 L 250.41 110.48 A 0.70 0.70 0.0 0 1 249.71 109.78 L 249.71 106.98 A 0.70 0.70 0.0 0 1 250.41 106.28 L 268.05 106.28 A 0.70 0.70 0.0 0 1 268.75 106.98 L 268.75 145.36 A 0.70 0.70 0.0 0 1 268.05 146.06 L 265.40 146.06 A 0.70 0.70 0.0 0 1 264.70 145.36 L 264.70 111.18 A 0.70 0.70 0.0 0 0 264.00 110.48 Z"/>
    <path d="M 276.57 111.48 L 276.57 144.86 A 1.05 1.05 0.0 0 1 275.52 145.91 L 273.36 145.91 A 1.05 1.05 0.0 0 1 272.31 144.86 L 272.31 107.30 A 1.05 1.05 0.0 0 1 273.36 106.25 L 290.16 106.25 A 1.05 1.05 0.0 0 1 291.21 107.30 L 291.21 109.38 A 1.05 1.05 0.0 0 1 290.16 110.43 L 277.62 110.43 A 1.05 1.05 0.0 0 0 276.57 111.48 Z"/>
    <path d="M 326.87 116.85 C 333.41 119.16 337.42 125.98 336.41 132.63 C 335.21 140.54 329.67 145.94 321.41 145.92 Q 310.17 145.90 297.43 145.96 A 1.36 1.36 0.0 0 1 296.07 144.60 L 296.07 142.89 A 1.29 1.28 0.2 0 1 297.37 141.61 Q 313.62 141.81 322.47 141.70 C 330.64 141.60 334.69 130.75 330.29 124.54 Q 326.47 119.16 318.72 120.04 A 0.88 0.88 0.0 0 1 318.00 118.55 L 330.65 105.90 A 1.73 1.73 0.0 0 0 330.16 103.11 Q 329.01 102.58 327.75 102.56 Q 320.66 102.46 297.45 102.82 A 1.19 1.18 89.5 0 1 296.25 101.63 L 296.25 99.54 A 1.28 1.28 0.0 0 1 297.53 98.26 Q 323.06 98.27 328.00 98.30 C 331.07 98.33 333.84 99.18 334.68 102.32 Q 335.43 105.09 334.44 107.51 A 3.38 3.36 78.5 0 1 333.73 108.59 L 326.61 115.70 A 0.70 0.70 0.0 0 0 326.87 116.85 Z"/>
    <path d="M 314.26 111.12 A 0.53 0.53 0.0 0 0 313.76 110.41 L 297.08 110.41 A 0.90 0.90 0.0 0 1 296.18 109.51 L 296.18 107.28 A 1.00 1.00 0.0 0 1 297.18 106.28 L 321.87 106.28 A 1.24 1.24 0.0 0 1 322.74 108.40 L 309.03 122.11 A 0.58 0.57 -66.5 0 0 309.41 123.09 Q 312.21 123.17 318.74 122.96 C 321.21 122.88 324.55 123.19 326.39 125.20 C 331.04 130.27 328.37 137.57 321.26 137.92 Q 314.66 138.24 296.78 137.89 A 0.74 0.74 0.0 0 1 296.06 137.15 L 296.06 134.55 A 0.78 0.78 0.0 0 1 296.84 133.77 L 321.37 133.89 A 3.27 3.27 0.0 0 0 324.65 130.53 L 324.65 130.50 A 3.21 3.21 0.0 0 0 321.48 127.36 L 302.36 127.14 A 1.32 1.31 -1.9 0 1 301.07 125.94 Q 300.94 124.50 301.57 123.82 Q 308.71 116.11 313.61 112.12 Q 314.02 111.79 314.26 111.12 Z"/>
  </g>
</svg>