<?xml version="1.0" encoding="UTF-8" standalone="no"?>
<svg xmlns="http://www.w3.org/2000/svg" version="1.1" viewBox="18.00 10.00 1061.25 102.00" width="1100" height="150">
  
  <g transform="translate(10)" fill="#000000">
    <path d="M 106.95 40.01 Q 91.24 27.44 70.76 29.76 C 55.91 31.45 40.53 39.17 37.54 55.56 Q 33.98 74.99 49.70 86.02 Q 59.19 92.69 70.19 94.24 Q 91.64 97.26 107.19 83.82 A 1.86 1.85 49.9 0 1 109.84 84.05 L 119.27 95.53 A 1.54 1.54 0.0 0 1 119.04 97.72 C 103.42 110.07 85.26 113.90 65.62 111.16 C 46.18 108.44 28.21 95.82 20.92 77.21 Q 16.08 64.87 18.06 52.82 C 20.39 38.56 31.23 24.70 44.12 18.36 Q 57.78 11.63 72.99 11.11 Q 99.10 10.22 119.05 26.73 A 1.40 1.39 -47.9 0 1 119.15 28.79 L 107.98 39.95 A 0.78 0.77 -48.2 0 1 106.95 40.01 Z"/>
    <path d="M 121.0189 60.9864 A 58.65 50.53 -179.0 0 1 180.5419 11.4877 A 58.65 50.53 -179.0 0 1 238.3011 63.0336 A 58.65 50.53 -179.0 0 1 178.7781 112.5323 A 58.65 50.53 -179.0 0 1 121.0189 60.9864 Z M 218.82 57.57 C 215.97 40.64 200.34 30.64 184.03 29.72 C 161.66 28.47 137.23 40.86 140.97 67.26 C 142.48 77.86 150.77 87.04 160.51 90.93 C 169.36 94.47 182.18 94.45 192.23 92.73 Q 201.31 91.17 208.71 85.28 Q 221.74 74.89 218.82 57.57 Z"/>
    <path d="M 267.83 46.06 A 0.54 0.53 -65.5 0 0 266.90 46.41 L 265.74 105.91 A 0.76 0.76 0.0 0 1 264.98 106.65 L 249.34 106.65 A 1.13 1.13 0.0 0 1 248.21 105.52 L 248.21 19.37 A 1.49 1.49 0.0 0 1 249.63 17.88 Q 254.69 17.64 263.52 17.84 Q 266.95 17.92 269.02 20.47 C 276.10 29.18 283.73 36.90 292.57 46.91 Q 306.98 63.23 321.70 78.88 A 0.77 0.77 0.0 0 0 323.03 78.35 L 323.03 19.26 A 1.35 1.35 0.0 0 1 324.38 17.91 L 339.76 17.91 A 1.62 1.62 0.0 0 1 341.38 19.53 L 341.38 105.61 A 1.00 1.00 0.0 0 1 340.38 106.61 L 324.25 106.61 A 4.15 4.12 -20.8 0 1 321.17 105.24 L 267.83 46.06 Z"/>
    <path d="M 392.73 17.36 Q 431.84 17.35 432.25 17.35 Q 435.38 17.38 435.37 20.24 Q 435.32 30.23 435.07 34.38 A 1.61 1.60 -88.3 0 1 433.47 35.89 Q 406.41 35.82 404.01 35.93 Q 402.07 36.02 402.18 38.27 Q 402.21 38.69 402.21 39.27 Q 402.22 94.62 402.18 101.99 Q 402.17 104.19 401.61 105.60 A 0.76 0.75 10.9 0 1 400.91 106.07 Q 396.74 106.06 392.76 106.06 Q 388.79 106.06 384.62 106.08 A 0.76 0.75 -11.0 0 1 383.92 105.61 Q 383.35 104.20 383.34 102.00 Q 383.30 94.63 383.26 39.28 Q 383.26 38.70 383.29 38.28 Q 383.40 36.03 381.46 35.94 Q 379.06 35.83 352.00 35.92 A 1.61 1.60 88.2 0 1 350.40 34.41 Q 350.15 30.26 350.09 20.27 Q 350.07 17.41 353.21 17.38 Q 353.61 17.38 392.73 17.36 Z"/>
    <path d="M 421.39 105.99 A 1.21 1.20 14.8 0 1 420.36 104.23 Q 423.71 97.81 427.74 89.90 Q 445.88 54.33 463.22 20.00 Q 464.62 17.23 467.82 17.11 Q 474.07 16.90 480.45 17.35 A 3.25 3.24 -11.3 0 1 483.12 19.12 L 526.99 105.59 A 0.73 0.73 0.0 0 1 526.33 106.65 L 510.11 106.33 A 3.04 3.04 0.0 0 1 507.50 104.76 Q 505.19 100.61 502.47 95.04 C 501.02 92.08 499.54 91.52 496.03 91.49 Q 467.80 91.20 448.78 91.57 Q 446.93 91.61 445.69 93.16 Q 444.28 94.91 439.79 104.04 Q 438.71 106.24 435.23 106.28 Q 430.93 106.33 421.39 105.99 Z M 456.82 70.98 A 1.41 1.41 0.0 0 0 458.08 73.04 L 488.88 73.04 A 1.41 1.41 0.0 0 0 490.14 70.98 L 474.73 41.31 A 1.41 1.41 0.0 0 0 472.23 41.31 L 456.82 70.98 Z"/>
    <path d="M 530.38 106.34 A 0.83 0.83 0.0 0 1 529.78 104.97 L 565.25 62.89 A 2.19 2.19 0.0 0 0 565.26 60.08 L 531.13 18.54 A 0.72 0.71 68.6 0 1 531.64 17.37 Q 538.31 17.01 544.49 17.07 C 549.66 17.12 552.24 16.74 555.41 20.61 Q 571.66 40.41 575.03 44.21 Q 576.40 45.75 577.32 46.57 A 0.99 0.98 40.4 0 0 578.72 46.46 L 602.27 18.53 A 3.87 3.86 -69.9 0 1 605.23 17.15 L 626.43 17.15 A 0.71 0.70 20.1 0 1 626.97 18.31 L 590.89 61.11 A 1.40 1.40 0.0 0 0 590.90 62.92 L 627.18 105.64 A 0.74 0.74 0.0 0 1 626.61 106.86 L 606.16 106.86 A 4.01 4.00 69.8 0 1 603.11 105.45 L 579.08 77.15 A 0.74 0.74 0.0 0 0 578.03 77.08 Q 575.16 79.68 574.14 80.88 Q 562.89 94.15 554.75 104.00 C 553.50 105.50 551.94 106.53 549.77 106.57 Q 538.87 106.77 530.38 106.34 Z"/>
  </g>

  <g transform="translate(650, 2) scale(0.5)" fill="#000000">
    <path d="M 485.25 164.90 A 1.43 1.43 0.0 0 1 486.68 166.31 L 487.20 217.48 A 0.43 0.43 0.0 0 1 486.77 217.92 L 273.20 217.92 A 1.46 1.46 0.0 0 1 271.74 216.49 C 271.38 197.65 270.74 179.78 271.69 161.93 C 272.57 145.20 278.60 127.95 290.30 115.81 C 304.50 101.08 325.00 92.76 345.25 91.35 Q 392.84 88.03 411.00 86.77 Q 415.39 86.46 420.56 83.73 A 2.15 2.11 2.2 0 0 421.31 83.05 C 425.35 77.07 424.94 67.24 417.90 63.72 C 414.94 62.24 411.62 62.19 408.53 61.81 Q 382.71 58.64 357.18 62.68 C 351.26 63.62 345.38 66.13 342.60 71.64 Q 342.24 72.35 340.90 75.00 A 1.11 1.10 -76.2 0 1 339.92 75.60 L 268.69 75.60 A 0.91 0.91 0.0 0 1 267.79 74.53 Q 269.93 62.71 274.60 51.85 C 283.64 30.87 302.04 18.25 324.25 13.61 Q 343.70 9.54 368.67 7.90 C 389.12 6.56 410.93 8.35 431.80 11.72 C 444.86 13.83 456.60 19.67 465.56 29.92 C 478.69 44.92 484.53 63.96 483.11 83.73 Q 481.92 100.27 473.98 112.04 C 463.57 127.46 445.34 136.07 426.96 139.12 Q 421.61 140.01 413.22 140.62 Q 394.65 141.97 347.37 145.10 Q 337.86 145.73 333.43 153.74 Q 331.09 157.97 330.58 162.86 A 1.85 1.85 0.0 0 0 332.42 164.90 L 485.25 164.90 Z M 311.00 183.14 A 0.81 0.80 87.7 0 1 310.20 182.40 Q 309.23 170.53 309.78 160.65 C 310.62 145.49 320.73 134.99 334.42 129.74 Q 339.08 127.95 349.82 127.06 Q 386.39 124.03 413.77 122.08 Q 426.78 121.15 437.21 116.89 Q 445.55 113.47 452.05 106.74 Q 464.35 93.97 463.25 75.24 C 462.21 57.51 453.33 42.16 437.63 33.79 Q 430.02 29.73 413.91 27.85 Q 373.70 23.14 335.92 30.47 C 328.77 31.86 323.16 33.65 316.74 36.24 Q 303.20 41.72 297.15 54.99 A 1.38 1.38 0.0 0 0 298.41 56.95 L 330.50 56.85 A 1.11 1.10 18.1 0 0 331.39 56.40 C 331.75 55.90 331.64 55.43 332.27 54.67 Q 337.80 47.98 346.24 46.50 C 369.43 42.44 393.47 42.62 416.31 45.73 C 436.38 48.46 445.15 62.68 443.24 82.16 A 5.57 5.30 -34.1 0 1 442.94 83.53 C 439.36 93.54 431.83 100.79 421.46 102.99 Q 417.01 103.93 413.25 104.23 C 377.94 107.03 355.07 108.65 339.06 110.49 C 322.39 112.41 308.47 120.99 298.96 134.93 C 291.64 145.66 290.83 158.94 290.80 171.75 Q 290.76 187.47 290.98 194.75 Q 291.04 196.76 291.40 198.41 A 0.71 0.71 0.0 0 0 292.09 198.96 L 466.81 198.96 A 0.83 0.83 0.0 0 0 467.64 198.13 L 467.64 184.63 A 1.49 1.49 0.0 0 0 466.15 183.14 L 311.00 183.14 Z"/>
    <path d="M 249.18 75.28 A 0.35 0.35 0.0 0 1 248.84 75.70 L 177.21 75.70 A 1.47 1.46 -16.0 0 1 175.97 75.02 C 174.53 72.76 172.93 68.92 170.40 66.61 C 164.66 61.36 159.70 61.32 150.76 60.71 Q 129.56 59.27 112.27 60.85 C 97.74 62.18 85.52 66.98 77.55 80.05 Q 71.84 89.40 70.21 100.21 C 68.52 111.51 69.05 123.52 72.59 135.05 C 75.45 144.39 80.16 150.94 87.44 156.90 C 93.20 161.62 100.98 164.91 108.57 165.22 C 111.92 165.36 114.45 165.76 117.81 165.75 Q 153.17 165.65 188.22 165.87 A 1.14 1.14 0.0 0 0 189.37 164.72 L 189.17 145.15 A 1.32 1.32 0.0 0 0 187.85 143.85 L 109.25 143.85 A 1.29 1.28 89.8 0 1 107.97 142.57 L 107.44 91.28 A 0.08 0.08 0.0 0 1 107.52 91.20 L 247.70 91.52 A 0.95 0.95 0.0 0 1 248.65 92.46 L 249.92 216.41 A 1.24 1.24 0.0 0 1 248.69 217.66 Q 196.32 218.00 170.00 217.86 Q 146.94 217.74 123.74 217.96 C 115.00 218.04 107.29 217.72 99.76 217.43 Q 87.69 216.96 74.20 212.79 C 51.27 205.71 32.42 189.48 20.91 168.37 Q 15.24 157.96 12.86 145.10 Q 10.16 130.52 9.99 118.49 Q 9.90 111.47 10.75 92.24 Q 11.75 69.75 23.05 50.34 Q 23.91 48.87 30.50 40.47 C 39.94 28.41 55.27 17.70 69.62 13.64 C 78.35 11.18 88.79 9.24 98.92 8.66 Q 118.14 7.58 134.50 7.72 C 144.80 7.82 150.17 7.54 158.15 7.98 Q 170.51 8.65 176.69 9.14 C 193.72 10.50 211.84 15.97 223.95 28.49 Q 224.15 28.70 229.26 33.87 C 233.16 37.81 235.99 42.69 239.11 48.42 Q 246.11 61.31 249.18 75.28 Z M 219.27 56.06 Q 218.71 54.42 216.99 51.54 C 209.70 39.38 197.26 31.79 183.57 28.93 Q 179.56 28.10 164.26 27.36 Q 131.24 25.76 100.13 27.85 Q 85.93 28.80 78.64 31.24 Q 65.28 35.71 54.96 44.25 C 40.48 56.23 31.87 74.69 29.83 93.37 Q 28.29 107.58 29.43 123.65 C 30.36 136.67 33.87 149.97 39.65 160.62 Q 51.68 182.75 74.14 192.17 C 87.35 197.72 102.37 199.04 117.51 199.16 Q 126.85 199.23 225.50 199.31 Q 226.90 199.31 230.08 199.18 A 0.83 0.83 0.0 0 0 230.80 198.67 Q 231.31 197.43 231.29 195.50 Q 230.58 132.25 230.47 113.31 Q 230.47 112.56 230.48 112.26 Q 230.59 110.16 228.74 110.17 Q 186.59 110.30 127.46 110.10 A 0.70 0.70 0.0 0 0 126.76 110.81 L 126.90 124.53 A 0.79 0.79 0.0 0 0 127.69 125.31 L 206.71 125.31 A 0.82 0.82 0.0 0 1 207.53 126.12 L 208.11 182.56 A 1.11 1.11 0.0 0 1 207.02 183.68 Q 200.03 183.78 123.06 183.67 Q 106.94 183.64 101.02 182.32 C 84.66 178.68 70.26 169.51 61.44 154.95 Q 53.75 142.25 51.93 129.53 Q 49.23 110.62 51.79 92.78 C 53.16 83.30 57.25 72.13 64.01 64.47 Q 68.81 59.02 71.42 56.67 C 80.99 48.04 94.53 44.39 106.76 43.27 C 123.05 41.78 141.06 42.29 157.26 42.83 C 167.75 43.18 177.37 46.62 183.79 54.99 A 4.43 4.43 0.0 0 0 187.31 56.73 L 218.79 56.73 A 0.51 0.51 0.0 0 0 219.27 56.06 Z"/>
  </g>
</svg>