<?xml version="1.0" encoding="UTF-8" standalone="no"?>
<svg xmlns="http://www.w3.org/2000/svg" version="1.1" viewBox="35.00 43.00 920.00 157.00" width="920" height="157">
  <g fill="#000000">
    <path d="M 131.06 171.13 A 0.41 0.40 -42.5 0 1 131.63 171.15 L 143.51 183.79 A 0.81 0.80 47.2 0 1 143.47 184.94 C 133.74 193.69 122.98 197.32 108.99 199.46 Q 105.24 200.04 99.99 199.85 C 96.55 199.72 91.84 200.09 88.01 199.55 Q 76.95 198.02 69.89 195.36 C 44.08 185.65 32.17 162.07 36.93 135.00 C 41.24 110.53 64.45 94.78 88.08 93.40 Q 91.58 93.19 102.52 93.23 C 116.73 93.28 130.12 97.33 141.36 105.93 A 1.29 1.28 36.6 0 1 141.63 107.70 L 131.09 122.29 A 0.52 0.52 0.0 0 1 130.34 122.39 Q 123.04 116.35 113.25 114.25 C 100.02 111.42 83.06 112.14 71.47 119.66 C 51.02 132.93 51.11 161.44 71.55 174.69 C 80.11 180.24 90.22 181.90 100.57 181.62 C 112.51 181.28 122.58 178.71 131.06 171.13 Z"/>
    <path d="M 208.86 93.32 Q 214.38 93.32 220.22 93.45 Q 225.82 93.57 236.09 97.15 C 258.35 104.93 270.78 123.20 270.78 146.37 C 270.79 169.54 258.36 187.82 236.10 195.60 Q 225.84 199.19 220.23 199.31 Q 214.39 199.43 208.87 199.43 Q 203.35 199.44 197.51 199.31 Q 191.91 199.19 181.64 195.61 C 159.38 187.83 146.95 169.56 146.95 146.39 C 146.95 123.22 159.37 104.94 181.63 97.16 Q 191.90 93.57 197.50 93.45 Q 203.34 93.32 208.86 93.32 Z M 167.49 147.20 C 167.50 167.66 183.79 179.69 202.78 181.28 Q 207.31 181.66 209.95 181.66 Q 212.60 181.66 217.13 181.27 C 236.12 179.66 252.39 167.60 252.37 147.14 C 252.36 126.69 236.08 114.66 217.08 113.06 Q 212.55 112.68 209.91 112.69 Q 207.26 112.69 202.73 113.07 C 183.74 114.69 167.48 126.75 167.49 147.20 Z"/>
    <path d="M 324.14 154.36 Q 315.77 144.68 300.31 127.19 Q 300.01 126.85 299.66 126.73 A 0.14 0.14 0.0 0 0 299.48 126.86 L 299.48 197.69 A 0.55 0.55 0.0 0 1 298.93 198.24 L 280.64 198.24 A 0.58 0.57 0.0 0 1 280.06 197.67 L 280.06 98.81 A 0.67 0.67 0.0 0 1 280.73 98.14 L 298.57 98.14 A 1.68 1.65 69.1 0 1 299.82 98.71 Q 335.40 139.03 337.99 142.01 Q 346.36 151.69 361.82 169.18 Q 362.12 169.52 362.47 169.64 A 0.14 0.14 0.0 0 0 362.65 169.51 L 362.65 98.68 A 0.55 0.55 0.0 0 1 363.20 98.13 L 381.49 98.13 A 0.58 0.57 0.0 0 1 382.07 98.70 L 382.07 197.56 A 0.67 0.67 0.0 0 1 381.40 198.23 L 363.56 198.23 A 1.68 1.65 69.1 0 1 362.31 197.66 Q 326.73 157.34 324.14 154.36 Z"/>
    <path d="M 480.18 98.33 L 480.18 116.71 A 0.38 0.38 0.0 0 1 479.80 117.09 L 445.85 117.09 A 0.38 0.38 0.0 0 0 445.47 117.47 L 445.47 197.90 A 0.38 0.38 0.0 0 1 445.09 198.28 L 426.75 198.28 A 0.38 0.38 0.0 0 1 426.37 197.90 L 426.37 117.47 A 0.38 0.38 0.0 0 0 425.99 117.09 L 391.21 117.09 A 0.38 0.38 0.0 0 1 390.83 116.71 L 390.83 98.33 A 0.38 0.38 0.0 0 1 391.21 97.95 L 479.80 97.95 A 0.38 0.38 0.0 0 1 480.18 98.33 Z"/>
    <path d="M 515.49 98.19 Q 519.51 98.19 523.16 98.23 A 0.88 0.87 77.0 0 1 523.94 98.72 L 571.97 197.69 A 0.42 0.42 0.0 0 1 571.59 198.29 L 554.25 198.29 A 1.90 1.90 0.0 0 1 552.54 197.22 L 544.21 180.06 A 0.94 0.93 76.6 0 0 543.35 179.53 Q 542.38 179.54 515.50 179.54 Q 488.62 179.55 487.64 179.54 A 0.94 0.93 -76.6 0 0 486.78 180.07 L 478.46 197.23 A 1.90 1.90 0.0 0 1 476.75 198.30 L 459.41 198.30 A 0.42 0.42 0.0 0 1 459.03 197.70 L 507.03 98.72 A 0.88 0.87 -77.0 0 1 507.82 98.23 Q 511.46 98.19 515.49 98.19 Z M 496.51 159.78 A 0.38 0.38 0.0 0 0 496.85 160.32 L 534.15 160.39 A 0.38 0.38 0.0 0 0 534.49 159.84 L 515.91 121.32 A 0.38 0.38 0.0 0 0 515.22 121.32 L 496.51 159.78 Z"/>
    <path d="M 654.16 198.14 L 626.58 163.10 A 0.30 0.30 0.0 0 0 626.11 163.10 L 597.19 198.17 A 0.30 0.30 0.0 0 1 596.96 198.28 L 576.65 198.28 A 0.30 0.30 0.0 0 1 576.41 197.79 L 615.87 149.96 A 0.30 0.30 0.0 0 0 615.87 149.58 L 575.81 98.69 A 0.30 0.30 0.0 0 1 576.05 98.20 L 596.59 98.20 A 0.30 0.30 0.0 0 1 596.83 98.31 L 626.70 136.27 A 0.30 0.30 0.0 0 0 627.17 136.27 L 658.42 98.38 A 0.30 0.30 0.0 0 1 658.65 98.27 L 678.95 98.27 A 0.30 0.30 0.0 0 1 679.19 98.76 L 637.33 149.50 A 0.30 0.30 0.0 0 0 637.33 149.88 L 675.03 197.76 A 0.30 0.30 0.0 0 1 674.79 198.25 L 654.40 198.25 A 0.30 0.30 0.0 0 1 654.16 198.14 Z"/>
  </g>

  <g fill="#ed1f25">
    <path d="M 836.01 53.78 A 2.55 2.55 0.0 0 1 833.46 56.33 L 700.82 56.33 A 2.55 2.55 0.0 0 1 698.27 53.78 L 698.27 46.20 A 2.55 2.55 0.0 0 1 700.82 43.65 L 833.46 43.65 A 2.55 2.55 0.0 0 1 836.01 46.20 L 836.01 53.78 Z"/>
    <path d="M 747.41 82.69 A 2.05 2.04 -10.3 0 0 745.51 81.38 Q 728.96 81.26 702.26 81.43 C 699.14 81.45 698.17 80.76 698.29 77.66 Q 698.30 77.37 698.20 72.52 Q 698.12 68.89 701.44 68.89 Q 727.19 68.88 757.72 68.92 Q 760.34 68.93 760.37 72.01 Q 760.60 96.31 760.29 115.32 Q 760.19 121.34 760.20 148.77 Q 760.20 149.77 760.43 194.99 C 760.46 199.72 755.49 198.78 751.69 198.77 Q 748.67 198.76 748.02 196.61 Q 747.75 195.74 747.75 191.94 Q 747.79 109.17 747.63 84.05 Q 747.62 83.24 747.41 82.69 Z"/>
    <path d="M 786.96 82.68 Q 786.75 83.23 786.74 84.04 Q 786.59 109.15 786.65 191.90 Q 786.65 195.69 786.38 196.56 Q 785.73 198.71 782.71 198.73 C 778.91 198.74 773.94 199.68 773.97 194.95 Q 774.19 149.74 774.19 148.74 Q 774.19 121.32 774.09 115.30 Q 773.78 96.30 774.00 72.00 Q 774.03 68.93 776.65 68.91 Q 807.17 68.87 832.91 68.87 Q 836.23 68.87 836.15 72.50 Q 836.05 77.35 836.06 77.64 C 836.19 80.74 835.22 81.43 832.10 81.41 Q 805.40 81.24 788.86 81.37 A 2.05 2.04 10.2 0 0 786.96 82.68 Z"/>
  </g>
</svg>